<svg width="745" height="700" viewBox="0 0 745 700" fill="none" xmlns="http://www.w3.org/2000/svg">
<rect width="745" height="700" rx="20" fill="white" fill-opacity="0.5"/>
<rect x="2" y="2" width="741" height="696" rx="18" stroke="black" stroke-opacity="0.2" stroke-width="4"/>
<rect x="253" y="636" width="227.906" height="38" rx="10" fill="#0095FF"/>
<path d="M317.46 653.133H314.071C313.954 652.117 313.182 651.277 311.844 651.277C310.253 651.277 309.384 652.459 309.384 654.549V656.053C309.384 657.898 310.009 659.393 311.932 659.393C313.446 659.393 314.178 658.465 314.178 657.459V657.01H312.069V654.607H317.469V657.176C317.469 659.783 315.819 662.234 311.854 662.234C307.635 662.234 305.848 659.48 305.848 656.072V654.51C305.848 650.965 307.968 648.436 311.874 648.436C315.565 648.436 317.411 650.74 317.46 653.133ZM324.559 662.195C321.552 662.195 319.481 660.545 319.481 657.195V656.316C319.481 652.967 321.718 651.346 324.413 651.346C327.313 651.346 329.296 653.221 329.296 656.316V657.449H322.782V657.918C322.782 659.051 323.563 659.725 324.54 659.725C325.428 659.725 326.122 659.295 326.171 658.641H329.247C329.188 660.115 327.87 662.195 324.559 662.195ZM322.782 655.604H326.063V655.564C326.063 654.461 325.428 653.729 324.442 653.729C323.456 653.729 322.782 654.461 322.782 655.564V655.604ZM332.46 651.727V649.148H335.721V651.727H338.007V654.236H335.721V658.357C335.721 659.217 336.19 659.529 337.079 659.529C337.479 659.529 337.841 659.51 338.046 659.49V661.893C337.792 661.941 337.069 662.02 336.268 662.02C333.553 662.02 332.372 661.219 332.372 659.012V654.236H330.78V651.727H332.46ZM344.012 658.045H347.323C347.382 658.865 348.192 659.607 349.618 659.607C351.024 659.607 351.639 659.002 351.639 658.23C351.639 657.449 350.975 657.117 349.696 656.854L347.899 656.492C345.751 656.062 344.276 654.93 344.276 652.645C344.276 650.018 346.425 648.426 349.589 648.426C353.085 648.426 354.823 650.428 354.833 652.547H351.63C351.581 651.775 350.897 651.023 349.579 651.023C348.368 651.023 347.753 651.609 347.753 652.371C347.753 653.045 348.407 653.436 349.53 653.631L351.385 653.982C353.358 654.344 355.077 655.33 355.077 657.869C355.077 660.428 353.192 662.234 349.501 662.234C345.507 662.234 344.042 660.154 344.012 658.045ZM358.319 651.727V649.148H361.581V651.727H363.866V654.236H361.581V658.357C361.581 659.217 362.05 659.529 362.938 659.529C363.339 659.529 363.7 659.51 363.905 659.49V661.893C363.651 661.941 362.928 662.02 362.128 662.02C359.413 662.02 358.231 661.219 358.231 659.012V654.236H356.639V651.727H358.319ZM368.983 662.146C366.942 662.146 365.526 660.975 365.526 658.973C365.526 657.049 366.854 655.809 369.296 655.809H371.659V654.969C371.659 654.217 371.151 653.816 370.37 653.816C369.559 653.816 369.12 654.236 369.071 654.812H365.897C365.966 653.152 367.02 651.385 370.419 651.385C372.948 651.385 374.999 652.342 374.999 655.086V662H371.825V660.73H371.659C371.346 661.434 370.526 662.146 368.983 662.146ZM370.175 659.832C370.956 659.832 371.659 659.324 371.659 658.582V657.586H370.243C369.354 657.586 368.846 658.035 368.846 658.689C368.846 659.441 369.491 659.832 370.175 659.832ZM377.587 662V651.541H380.985V653.201H381.151C381.317 652.479 382.089 651.395 383.553 651.395C384.032 651.395 384.344 651.424 384.54 651.492V654.344C384.315 654.256 383.827 654.207 383.339 654.207C381.776 654.207 381.083 655.096 381.083 656.492V662H377.587ZM387.538 651.727V649.148H390.8V651.727H393.085V654.236H390.8V658.357C390.8 659.217 391.268 659.529 392.157 659.529C392.557 659.529 392.919 659.51 393.124 659.49V661.893C392.87 661.941 392.147 662.02 391.346 662.02C388.632 662.02 387.45 661.219 387.45 659.012V654.236H385.858V651.727H387.538ZM399.852 662.195C396.844 662.195 394.774 660.545 394.774 657.195V656.316C394.774 652.967 397.01 651.346 399.706 651.346C402.606 651.346 404.589 653.221 404.589 656.316V657.449H398.075V657.918C398.075 659.051 398.856 659.725 399.833 659.725C400.721 659.725 401.415 659.295 401.464 658.641H404.54C404.481 660.115 403.163 662.195 399.852 662.195ZM398.075 655.604H401.356V655.564C401.356 654.461 400.721 653.729 399.735 653.729C398.749 653.729 398.075 654.461 398.075 655.564V655.604ZM410.165 651.434C411.63 651.434 412.733 652.107 413.114 653.172H413.27V647.879H416.669V662H413.29V660.32H413.124C412.772 661.385 411.63 662.107 410.145 662.107C407.841 662.107 406.346 660.379 406.346 657.312V656.209C406.346 653.143 407.85 651.434 410.165 651.434ZM411.542 654.041C410.536 654.041 409.852 654.842 409.852 656.395V657.146C409.852 658.709 410.546 659.52 411.552 659.52C412.557 659.52 413.27 658.719 413.27 657.195V656.297C413.27 654.832 412.528 654.041 411.542 654.041ZM419.159 660.555C419.159 659.539 419.93 658.885 421.19 658.885C422.45 658.885 423.231 659.539 423.231 660.555C423.231 661.551 422.46 662.215 421.19 662.215C419.94 662.215 419.159 661.551 419.159 660.555ZM419.354 648.67H423.046L422.645 657.674H419.735L419.354 648.67Z" fill="white"/>
<path d="M224.24 618.299H225.793C225.783 618.377 225.783 618.475 225.783 618.543C225.783 619.686 226.955 620.857 228.977 620.857C230.822 620.857 232.004 619.881 232.004 618.445C232.004 617.088 230.871 616.561 229.562 616.072L229.035 615.877C227.326 615.242 225.451 614.227 225.451 612.059C225.451 609.715 227.463 608.377 229.943 608.377C232.111 608.377 234.182 609.588 234.182 611.795C234.182 611.814 234.162 612.127 234.162 612.127H232.668C232.668 612.127 232.678 612.088 232.678 611.971C232.678 610.623 231.408 609.793 229.924 609.793C228.586 609.793 227.092 610.447 227.092 611.98C227.092 613.221 228.215 613.836 229.641 614.402L230.354 614.686C232.072 615.369 233.645 616.102 233.645 618.289C233.645 620.828 231.662 622.273 228.898 622.273C226.008 622.273 224.211 620.506 224.211 618.748C224.211 618.611 224.221 618.436 224.24 618.299ZM236.125 622L237.932 611.756H239.484L237.678 622H236.125ZM237.932 608.611C237.932 607.938 238.439 607.449 239.074 607.449C239.748 607.449 240.246 607.938 240.246 608.611C240.246 609.266 239.748 609.754 239.074 609.754C238.439 609.754 237.932 609.266 237.932 608.611ZM241.506 622L244.064 607.576H245.617L243.059 622H241.506ZM250.822 622.166C248.586 622.166 246.926 620.828 246.926 618.309C246.926 617.703 247.023 617.088 247.092 616.717L247.365 615.213C247.775 612.938 249.504 611.59 251.828 611.59C255.002 611.59 255.842 614.109 255.51 615.896L255.256 617.264H248.498C248.449 617.439 248.4 617.801 248.4 618.162C248.4 619.48 249.055 620.799 250.93 620.799C252.238 620.799 253.068 620.154 253.283 619.48H254.836C254.592 620.76 253.107 622.166 250.822 622.166ZM254.006 616.023L254.035 615.867C254.348 614.246 253.537 612.898 251.77 612.898C250.5 612.898 249.25 613.621 248.898 615.32L248.752 616.023H254.006ZM257.414 622L259.221 611.756H260.744L260.432 613.455H260.549C261.115 612.264 262.15 611.59 263.615 611.59C265.861 611.59 266.76 613.162 266.76 614.803C266.76 615.35 266.662 615.926 266.564 616.473L265.588 622H264.035L265.031 616.375C265.08 616.082 265.168 615.564 265.168 615.096C265.168 613.943 264.66 612.898 263.146 612.898C261.33 612.898 260.305 614.393 260.012 616.072L258.967 622H257.414ZM269.26 618.221C269.26 617.811 269.309 617.264 269.396 616.736L269.65 615.281C270.07 612.869 271.721 611.59 274.006 611.59C276.467 611.59 277.844 613.113 277.844 614.793V614.891H276.33C276.33 614.861 276.33 614.822 276.33 614.793C276.33 613.953 275.568 612.898 274.006 612.898C272.561 612.898 271.438 613.885 271.115 615.691L270.91 616.844C270.832 617.264 270.803 617.566 270.803 617.889C270.803 619.705 271.672 620.799 273.371 620.799C274.641 620.799 275.461 620.184 275.646 619.461H277.209C276.916 621.102 275.344 622.166 273.303 622.166C270.861 622.166 269.26 620.623 269.26 618.221ZM279.582 622L281.389 611.756H282.941L281.135 622H279.582ZM281.389 608.611C281.389 607.938 281.896 607.449 282.531 607.449C283.205 607.449 283.703 607.938 283.703 608.611C283.703 609.266 283.205 609.754 282.531 609.754C281.896 609.754 281.389 609.266 281.389 608.611ZM284.816 622L286.623 611.756H288.146L287.834 613.455H287.951C288.518 612.264 289.553 611.59 291.018 611.59C293.264 611.59 294.162 613.162 294.162 614.803C294.162 615.35 294.064 615.926 293.967 616.473L292.99 622H291.438L292.434 616.375C292.482 616.082 292.57 615.564 292.57 615.096C292.57 613.943 292.062 612.898 290.549 612.898C288.732 612.898 287.707 614.393 287.414 616.072L286.369 622H284.816ZM301.311 611.59C303.02 611.59 304.094 612.566 304.406 613.719H304.533L304.885 611.756H306.408L304.611 621.922C304.143 624.568 302.648 625.867 299.963 625.867C297.57 625.867 296.076 624.441 296.076 622.957V622.85H297.6V622.938C297.6 623.699 298.576 624.539 300.051 624.539C301.965 624.539 302.844 623.484 303.176 621.648L303.449 620.135H303.322C302.951 621.062 301.975 621.834 300.422 621.834C298.537 621.834 296.701 620.379 296.701 617.928C296.701 617.557 296.76 616.912 296.838 616.531L297.072 615.33C297.58 612.723 299.406 611.59 301.311 611.59ZM304.074 615.76C304.074 613.953 302.932 612.898 301.389 612.898C299.865 612.898 298.84 614.041 298.508 615.799L298.352 616.619C298.303 616.893 298.225 617.449 298.225 617.703C298.225 619.598 299.289 620.545 300.91 620.545C302.355 620.545 303.508 619.383 303.811 617.645L303.977 616.697C304.074 616.121 304.074 615.838 304.074 615.76ZM311.418 622L318.537 608.66H320.197L322.609 622H320.998L320.324 617.879H315.246L313.117 622H311.418ZM319.123 610.604H319.006L315.939 616.59H320.1L319.123 610.604ZM326.584 622H325.012L327.365 608.66H328.938L326.584 622ZM330.041 626.033H328.674L331.252 620.232H333.332L330.041 626.033ZM341.75 622H340.188L342.541 608.66H346.799C349.348 608.66 350.695 610.193 350.695 612.107C350.695 612.293 350.676 612.596 350.646 612.85C350.324 615.467 348.596 616.844 345.246 616.844H342.658L341.75 622ZM346.535 610.057H343.859L342.902 615.447H345.461C348.059 615.447 348.928 614.217 349.064 612.879C349.094 612.684 349.113 612.4 349.113 612.234C349.113 611.072 348.449 610.057 346.535 610.057ZM351.75 622L353.557 611.756H355.031L354.719 613.475H354.836C355.217 612.518 356.262 611.59 357.805 611.59C358.039 611.59 358.4 611.619 358.586 611.648L358.264 613.113C358.059 613.045 357.688 613.025 357.463 613.025C355.607 613.025 354.641 614.441 354.338 616.121L353.303 622H351.75ZM363.225 622.166C360.988 622.166 359.328 620.828 359.328 618.309C359.328 617.703 359.426 617.088 359.494 616.717L359.768 615.213C360.178 612.938 361.906 611.59 364.23 611.59C367.404 611.59 368.244 614.109 367.912 615.896L367.658 617.264H360.9C360.852 617.439 360.803 617.801 360.803 618.162C360.803 619.48 361.457 620.799 363.332 620.799C364.641 620.799 365.471 620.154 365.686 619.48H367.238C366.994 620.76 365.51 622.166 363.225 622.166ZM366.408 616.023L366.438 615.867C366.75 614.246 365.939 612.898 364.172 612.898C362.902 612.898 361.652 613.621 361.301 615.32L361.154 616.023H366.408ZM370.803 614.529C370.803 612.742 372.102 611.57 374.426 611.57C376.857 611.57 378.078 613.084 378.078 614.363V614.539H376.623V614.471C376.623 613.768 375.891 612.811 374.396 612.811C373.088 612.811 372.336 613.504 372.336 614.334C372.336 615.369 373.361 615.701 374.504 616.082C376.027 616.58 377.385 617.176 377.385 619.031C377.385 621.043 375.91 622.186 373.508 622.186C371.115 622.186 369.543 620.76 369.543 619.217V619.148H371.027C371.027 619.197 371.037 619.266 371.047 619.314C371.213 620.086 372.131 620.857 373.615 620.857C375.08 620.857 375.861 620.164 375.861 619.158C375.861 618.055 374.855 617.732 373.723 617.381C372.648 617.039 370.803 616.424 370.803 614.529ZM383.947 622.166C381.711 622.166 380.051 620.828 380.051 618.309C380.051 617.703 380.148 617.088 380.217 616.717L380.49 615.213C380.9 612.938 382.629 611.59 384.953 611.59C388.127 611.59 388.967 614.109 388.635 615.896L388.381 617.264H381.623C381.574 617.439 381.525 617.801 381.525 618.162C381.525 619.48 382.18 620.799 384.055 620.799C385.363 620.799 386.193 620.154 386.408 619.48H387.961C387.717 620.76 386.232 622.166 383.947 622.166ZM387.131 616.023L387.16 615.867C387.473 614.246 386.662 612.898 384.895 612.898C383.625 612.898 382.375 613.621 382.023 615.32L381.877 616.023H387.131ZM390.539 622L392.346 611.756H393.82L393.508 613.475H393.625C394.006 612.518 395.051 611.59 396.594 611.59C396.828 611.59 397.189 611.619 397.375 611.648L397.053 613.113C396.848 613.045 396.477 613.025 396.252 613.025C394.396 613.025 393.43 614.441 393.127 616.121L392.092 622H390.539ZM400.891 622L399.162 611.756H400.754L401.945 620.281H402.043L406.115 611.756H407.688L402.57 622H400.891ZM408.82 622L410.627 611.756H412.18L410.373 622H408.82ZM410.627 608.611C410.627 607.938 411.135 607.449 411.77 607.449C412.443 607.449 412.941 607.938 412.941 608.611C412.941 609.266 412.443 609.754 411.77 609.754C411.135 609.754 410.627 609.266 410.627 608.611ZM414.055 622L415.861 611.756H417.385L417.072 613.455H417.189C417.756 612.264 418.791 611.59 420.256 611.59C422.502 611.59 423.4 613.162 423.4 614.803C423.4 615.35 423.303 615.926 423.205 616.473L422.229 622H420.676L421.672 616.375C421.721 616.082 421.809 615.564 421.809 615.096C421.809 613.943 421.301 612.898 419.787 612.898C417.971 612.898 416.945 614.393 416.652 616.072L415.607 622H414.055ZM430.549 611.59C432.258 611.59 433.332 612.566 433.645 613.719H433.771L434.123 611.756H435.646L433.85 621.922C433.381 624.568 431.887 625.867 429.201 625.867C426.809 625.867 425.314 624.441 425.314 622.957V622.85H426.838V622.938C426.838 623.699 427.814 624.539 429.289 624.539C431.203 624.539 432.082 623.484 432.414 621.648L432.688 620.135H432.561C432.189 621.062 431.213 621.834 429.66 621.834C427.775 621.834 425.939 620.379 425.939 617.928C425.939 617.557 425.998 616.912 426.076 616.531L426.311 615.33C426.818 612.723 428.645 611.59 430.549 611.59ZM433.312 615.76C433.312 613.953 432.17 612.898 430.627 612.898C429.104 612.898 428.078 614.041 427.746 615.799L427.59 616.619C427.541 616.893 427.463 617.449 427.463 617.703C427.463 619.598 428.527 620.545 430.148 620.545C431.594 620.545 432.746 619.383 433.049 617.645L433.215 616.697C433.312 616.121 433.312 615.838 433.312 615.76ZM441.994 618.299H443.547C443.537 618.377 443.537 618.475 443.537 618.543C443.537 619.686 444.709 620.857 446.73 620.857C448.576 620.857 449.758 619.881 449.758 618.445C449.758 617.088 448.625 616.561 447.316 616.072L446.789 615.877C445.08 615.242 443.205 614.227 443.205 612.059C443.205 609.715 445.217 608.377 447.697 608.377C449.865 608.377 451.936 609.588 451.936 611.795C451.936 611.814 451.916 612.127 451.916 612.127H450.422C450.422 612.127 450.432 612.088 450.432 611.971C450.432 610.623 449.162 609.793 447.678 609.793C446.34 609.793 444.846 610.447 444.846 611.98C444.846 613.221 445.969 613.836 447.395 614.402L448.107 614.686C449.826 615.369 451.398 616.102 451.398 618.289C451.398 620.828 449.416 622.273 446.652 622.273C443.762 622.273 441.965 620.506 441.965 618.748C441.965 618.611 441.975 618.436 441.994 618.299ZM455.686 615.701L455.471 616.902C455.412 617.225 455.363 617.527 455.363 617.996C455.363 619.676 456.379 620.818 458.078 620.818C459.602 620.818 460.598 619.773 460.92 617.918L461.145 616.619C461.193 616.316 461.193 615.828 461.193 615.701C461.193 614.09 460.168 612.938 458.508 612.938C457.121 612.938 456.018 613.787 455.686 615.701ZM453.967 616.785L454.201 615.408C454.621 613.006 456.359 611.59 458.557 611.59C461.047 611.59 462.746 613.162 462.746 615.701C462.746 615.994 462.707 616.482 462.629 616.922L462.375 618.309C461.936 620.691 460.48 622.166 457.883 622.166C455.607 622.166 453.85 620.701 453.85 618.25C453.85 617.762 453.879 617.254 453.967 616.785ZM474.445 611.756L472.639 622H471.184L471.496 620.232H471.369C470.871 621.336 469.816 622.166 468.332 622.166C466.184 622.166 465.09 620.701 465.09 618.963C465.09 618.387 465.197 617.723 465.295 617.215L466.301 611.756H467.844L466.838 617.322C466.77 617.713 466.691 618.25 466.691 618.699C466.691 619.939 467.355 620.779 468.84 620.779C470.656 620.779 471.633 619.305 471.926 617.625L472.961 611.756H474.445ZM476.164 622L477.971 611.756H479.494L479.182 613.455H479.299C479.865 612.264 480.9 611.59 482.365 611.59C484.611 611.59 485.51 613.162 485.51 614.803C485.51 615.35 485.412 615.926 485.314 616.473L484.338 622H482.785L483.781 616.375C483.83 616.082 483.918 615.564 483.918 615.096C483.918 613.943 483.41 612.898 481.896 612.898C480.08 612.898 479.055 614.393 478.762 616.072L477.717 622H476.164ZM492.736 611.59C494.533 611.59 495.607 612.85 495.754 613.719H495.881L496.955 607.576H498.518L495.959 622H494.445L494.748 620.271H494.621C494.377 621.014 493.439 622.146 491.691 622.146C489.553 622.146 487.99 620.623 487.99 618.25C487.99 617.889 488.01 617.459 488.088 617.078L488.469 615.125C488.85 613.162 490.275 611.59 492.736 611.59ZM495.471 615.828C495.471 613.807 494.055 612.908 492.795 612.908C491.164 612.908 490.217 614.119 489.904 615.662L489.602 617.176C489.572 617.332 489.543 617.693 489.543 618.035C489.543 619.754 490.559 620.779 492.16 620.779C493.791 620.779 494.855 619.529 495.158 617.791L495.422 616.287C495.461 616.043 495.471 615.896 495.471 615.828ZM499.279 620.867C499.279 620.096 499.865 619.529 500.578 619.529C501.35 619.529 501.926 620.096 501.926 620.867C501.926 621.6 501.35 622.166 500.578 622.166C499.865 622.166 499.279 621.6 499.279 620.867Z" fill="black"/>
<path d="M74 348.398C71.9844 348.398 70.3203 346.723 70.3203 344.695C70.3203 342.668 71.9844 341.004 74 341.004C76.0156 341.004 77.6797 342.668 77.6797 344.695C77.6797 346.723 76.0156 348.398 74 348.398ZM100.098 335.004C103.203 335.004 105.219 337.078 105.219 340.031C105.219 342.996 103.203 345.047 100.086 345.047H96.3711V351H94.2148V335.004H100.098ZM103.004 340.031C103.004 338.051 101.867 336.914 99.8984 336.914H96.3711V343.148H99.8984C101.867 343.148 103.004 342 103.004 340.031ZM108.43 351V338.672H110.551V340.57H110.656C110.961 339.75 111.852 338.484 114.031 338.484C114.301 338.484 114.559 338.508 114.805 338.543V340.5C114.605 340.453 114.184 340.43 113.809 340.43C111.641 340.43 110.562 341.73 110.562 343.395V351H108.43ZM122.328 338.461C125.387 338.461 127.648 340.477 127.648 343.922V345.727C127.648 349.219 125.387 351.199 122.328 351.199C119.211 351.199 116.996 349.242 116.996 345.727V343.922C116.996 340.594 119.246 338.461 122.328 338.461ZM122.34 340.289C120.359 340.289 119.117 341.871 119.117 344.098V345.574C119.117 347.848 120.277 349.383 122.34 349.383C124.379 349.383 125.516 347.848 125.516 345.574V344.098C125.516 341.859 124.32 340.289 122.34 340.289ZM131.902 338.707V335.613H134V338.707H136.789V340.453H134V347.508C134 348.949 134.492 349.324 135.992 349.324C136.297 349.324 136.766 349.301 136.965 349.277V351C136.789 351.035 135.922 351.105 135.453 351.105C132.523 351.105 131.891 349.98 131.891 347.543V340.453H130.004V338.707H131.902ZM144.934 351.199C141.617 351.199 139.66 349.102 139.66 345.762V343.91C139.66 340.535 141.816 338.461 144.77 338.461C147.758 338.461 149.891 340.582 149.891 343.91V345.387H141.77V346.008C141.77 347.918 142.871 349.383 144.922 349.383C146.363 349.383 147.336 348.691 147.547 347.93H149.727C149.539 349.266 148.051 351.199 144.934 351.199ZM141.77 343.852H147.781V343.652C147.781 341.613 146.586 340.277 144.781 340.277C142.977 340.277 141.77 341.613 141.77 343.652V343.852ZM152.809 345.809V343.805C152.809 340.57 154.789 338.461 157.953 338.461C161.035 338.461 162.629 340.371 162.688 342.258H160.613C160.484 341.52 159.91 340.348 157.988 340.348C155.973 340.348 154.93 341.73 154.93 343.887V345.82C154.93 347.965 156.09 349.324 157.988 349.324C159.805 349.324 160.484 348.504 160.707 347.555H162.77C162.699 349.395 161.211 351.199 157.953 351.199C154.777 351.199 152.809 349.125 152.809 345.809ZM166.777 338.707V335.613H168.875V338.707H171.664V340.453H168.875V347.508C168.875 348.949 169.367 349.324 170.867 349.324C171.172 349.324 171.641 349.301 171.84 349.277V351C171.664 351.035 170.797 351.105 170.328 351.105C167.398 351.105 166.766 349.98 166.766 347.543V340.453H164.879V338.707H166.777ZM181.625 351V340.453H179.551V338.707H181.625V337.465C181.625 335.098 182.738 334.02 185.492 334.02C186.043 334.02 186.652 334.066 186.898 334.09V335.812C186.711 335.789 186.102 335.766 185.797 335.766C184.344 335.766 183.723 336.199 183.723 337.641V338.707H186.582V340.453H183.746V351H181.625ZM190.156 351V338.672H192.277V340.57H192.383C192.688 339.75 193.578 338.484 195.758 338.484C196.027 338.484 196.285 338.508 196.531 338.543V340.5C196.332 340.453 195.91 340.43 195.535 340.43C193.367 340.43 192.289 341.73 192.289 343.395V351H190.156ZM204.055 338.461C207.113 338.461 209.375 340.477 209.375 343.922V345.727C209.375 349.219 207.113 351.199 204.055 351.199C200.938 351.199 198.723 349.242 198.723 345.727V343.922C198.723 340.594 200.973 338.461 204.055 338.461ZM204.066 340.289C202.086 340.289 200.844 341.871 200.844 344.098V345.574C200.844 347.848 202.004 349.383 204.066 349.383C206.105 349.383 207.242 347.848 207.242 345.574V344.098C207.242 341.859 206.047 340.289 204.066 340.289ZM212.938 351V338.672H215.035V340.629H215.152C215.434 339.762 216.219 338.473 218.492 338.473C220.355 338.473 221.527 339.469 221.914 340.793H222.008C222.512 339.586 223.684 338.473 225.77 338.473C228.289 338.473 229.824 339.855 229.824 342.328V351H227.703V342.938C227.703 341.367 226.812 340.336 225.148 340.336C223.613 340.336 222.43 341.508 222.43 343.195V351H220.332V343.02C220.332 341.414 219.336 340.336 217.719 340.336C216.172 340.336 215.059 341.484 215.059 343.172V351H212.938ZM249.383 338.672V351H247.285V348.949H247.168C246.816 349.957 245.656 351.199 243.5 351.199C241.027 351.199 239.281 350.086 239.281 347.215V338.672H241.402V346.641C241.402 348.68 242.621 349.324 244.086 349.324C245.891 349.324 247.262 348.012 247.262 346.43V338.672H249.383ZM253.555 351V338.672H255.652V340.91H255.77C256.074 339.938 256.93 338.473 259.508 338.473C261.992 338.473 263.691 339.82 263.691 342.586V351H261.57V343.266C261.57 341.332 260.574 340.348 258.898 340.348C256.73 340.348 255.676 342.012 255.676 344.133V351H253.555ZM271.133 351.199C268.742 351.199 267.102 349.699 267.102 347.414C267.102 345.258 268.602 343.793 271.438 343.793H274.66V342.574C274.66 341.004 273.664 340.289 272.082 340.289C270.523 340.289 269.867 340.887 269.621 341.742H267.57C267.758 339.656 269.398 338.473 272.152 338.473C274.695 338.473 276.793 339.562 276.793 342.586V351H274.754V349.371H274.66C274.062 350.355 272.949 351.199 271.133 351.199ZM271.719 349.406C273.383 349.406 274.66 348.281 274.66 346.793V345.41H271.613C269.949 345.41 269.27 346.242 269.27 347.344C269.27 348.75 270.441 349.406 271.719 349.406ZM290.914 338.672V351H288.816V348.949H288.699C288.348 349.957 287.188 351.199 285.031 351.199C282.559 351.199 280.812 350.086 280.812 347.215V338.672H282.934V346.641C282.934 348.68 284.152 349.324 285.617 349.324C287.422 349.324 288.793 348.012 288.793 346.43V338.672H290.914ZM295.777 338.707V335.613H297.875V338.707H300.664V340.453H297.875V347.508C297.875 348.949 298.367 349.324 299.867 349.324C300.172 349.324 300.641 349.301 300.84 349.277V351C300.664 351.035 299.797 351.105 299.328 351.105C296.398 351.105 295.766 349.98 295.766 347.543V340.453H293.879V338.707H295.777ZM304.168 351V334.16H306.289V340.91H306.395C306.641 340.055 307.648 338.473 310.215 338.473C312.594 338.473 314.352 339.844 314.352 342.609V351H312.23V343.289C312.23 341.355 311.164 340.348 309.5 340.348C307.391 340.348 306.289 342 306.289 344.133V351H304.168ZM323.188 338.461C326.246 338.461 328.508 340.477 328.508 343.922V345.727C328.508 349.219 326.246 351.199 323.188 351.199C320.07 351.199 317.855 349.242 317.855 345.727V343.922C317.855 340.594 320.105 338.461 323.188 338.461ZM323.199 340.289C321.219 340.289 319.977 341.871 319.977 344.098V345.574C319.977 347.848 321.137 349.383 323.199 349.383C325.238 349.383 326.375 347.848 326.375 345.574V344.098C326.375 341.859 325.18 340.289 323.199 340.289ZM332.258 351V338.672H334.379V340.57H334.484C334.789 339.75 335.68 338.484 337.859 338.484C338.129 338.484 338.387 338.508 338.633 338.543V340.5C338.434 340.453 338.012 340.43 337.637 340.43C335.469 340.43 334.391 341.73 334.391 343.395V351H332.258ZM341.762 351V338.672H343.883V351H341.762ZM341.316 334.875C341.316 334.02 341.961 333.398 342.805 333.398C343.695 333.398 344.34 334.02 344.34 334.875C344.34 335.719 343.695 336.34 342.805 336.34C341.961 336.34 341.316 335.719 341.316 334.875ZM347.691 351V349.582L354.207 340.629V340.512H347.668V338.672H356.844V340.137L350.363 349.043V349.16H356.914V351H347.691ZM365.035 351.199C361.719 351.199 359.762 349.102 359.762 345.762V343.91C359.762 340.535 361.918 338.461 364.871 338.461C367.859 338.461 369.992 340.582 369.992 343.91V345.387H361.871V346.008C361.871 347.918 362.973 349.383 365.023 349.383C366.465 349.383 367.438 348.691 367.648 347.93H369.828C369.641 349.266 368.152 351.199 365.035 351.199ZM361.871 343.852H367.883V343.652C367.883 341.613 366.688 340.277 364.883 340.277C363.078 340.277 361.871 341.613 361.871 343.652V343.852ZM377.691 338.484C379.426 338.484 380.773 339.246 381.266 340.5H381.371V334.16H383.492V351H381.453V349.031H381.348C380.984 350.285 379.449 351.176 377.645 351.176C374.773 351.176 372.91 349.16 372.91 346.02V343.652C372.91 340.5 374.82 338.484 377.691 338.484ZM378.125 340.324C376.203 340.324 375.043 341.719 375.043 344.074V345.562C375.043 347.941 376.227 349.336 378.184 349.336C380.117 349.336 381.371 347.965 381.371 345.762V343.652C381.371 341.695 380 340.324 378.125 340.324ZM393.898 351H391.66L397.32 335.004H399.559L405.207 351H402.934L401.363 346.289H395.469L393.898 351ZM398.457 337.5H398.375L396.031 344.543H400.812L398.457 337.5ZM410.199 351H408.043V335.004H410.199V351ZM420.629 338.707V335.613H422.727V338.707H425.516V340.453H422.727V347.508C422.727 348.949 423.219 349.324 424.719 349.324C425.023 349.324 425.492 349.301 425.691 349.277V351C425.516 351.035 424.648 351.105 424.18 351.105C421.25 351.105 420.617 349.98 420.617 347.543V340.453H418.73V338.707H420.629ZM429.172 351V338.672H431.293V340.57H431.398C431.703 339.75 432.594 338.484 434.773 338.484C435.043 338.484 435.301 338.508 435.547 338.543V340.5C435.348 340.453 434.926 340.43 434.551 340.43C432.383 340.43 431.305 341.73 431.305 343.395V351H429.172ZM441.711 351.199C439.32 351.199 437.68 349.699 437.68 347.414C437.68 345.258 439.18 343.793 442.016 343.793H445.238V342.574C445.238 341.004 444.242 340.289 442.66 340.289C441.102 340.289 440.445 340.887 440.199 341.742H438.148C438.336 339.656 439.977 338.473 442.73 338.473C445.273 338.473 447.371 339.562 447.371 342.586V351H445.332V349.371H445.238C444.641 350.355 443.527 351.199 441.711 351.199ZM442.297 349.406C443.961 349.406 445.238 348.281 445.238 346.793V345.41H442.191C440.527 345.41 439.848 346.242 439.848 347.344C439.848 348.75 441.02 349.406 442.297 349.406ZM451.777 351V338.672H453.898V351H451.777ZM451.332 334.875C451.332 334.02 451.977 333.398 452.82 333.398C453.711 333.398 454.355 334.02 454.355 334.875C454.355 335.719 453.711 336.34 452.82 336.34C451.977 336.34 451.332 335.719 451.332 334.875ZM458.375 351V338.672H460.473V340.91H460.59C460.895 339.938 461.75 338.473 464.328 338.473C466.812 338.473 468.512 339.82 468.512 342.586V351H466.391V343.266C466.391 341.332 465.395 340.348 463.719 340.348C461.551 340.348 460.496 342.012 460.496 344.133V351H458.375ZM472.918 351V338.672H475.039V351H472.918ZM472.473 334.875C472.473 334.02 473.117 333.398 473.961 333.398C474.852 333.398 475.496 334.02 475.496 334.875C475.496 335.719 474.852 336.34 473.961 336.34C473.117 336.34 472.473 335.719 472.473 334.875ZM479.516 351V338.672H481.613V340.91H481.73C482.035 339.938 482.891 338.473 485.469 338.473C487.953 338.473 489.652 339.82 489.652 342.586V351H487.531V343.266C487.531 341.332 486.535 340.348 484.859 340.348C482.691 340.348 481.637 342.012 481.637 344.133V351H479.516ZM498.219 353.719C500.387 353.719 501.453 352.559 501.453 350.625V348.844H501.336C500.855 349.91 499.59 350.777 497.879 350.777C495.148 350.777 493.016 348.844 493.016 345.586V343.699C493.016 340.441 495.137 338.484 497.867 338.484C499.719 338.484 501.031 339.516 501.441 340.523H501.547V338.672H503.574V350.637C503.574 354.035 501.301 355.512 498.148 355.512C494.996 355.512 493.449 353.918 493.285 352.125H495.441C495.605 352.992 496.602 353.719 498.219 353.719ZM498.395 340.324C496.391 340.324 495.148 341.836 495.148 344.086V345.234C495.148 347.473 496.508 348.973 498.418 348.973C500.387 348.973 501.453 347.355 501.453 345.598V343.758C501.453 341.953 500.328 340.324 498.395 340.324Z" fill="black"/>
<path d="M74 392.398C71.9844 392.398 70.3203 390.723 70.3203 388.695C70.3203 386.668 71.9844 385.004 74 385.004C76.0156 385.004 77.6797 386.668 77.6797 388.695C77.6797 390.723 76.0156 392.398 74 392.398ZM100.098 379.004C103.203 379.004 105.219 381.078 105.219 384.031C105.219 386.996 103.203 389.047 100.086 389.047H96.3711V395H94.2148V379.004H100.098ZM103.004 384.031C103.004 382.051 101.867 380.914 99.8984 380.914H96.3711V387.148H99.8984C101.867 387.148 103.004 386 103.004 384.031ZM108.43 395V382.672H110.551V384.57H110.656C110.961 383.75 111.852 382.484 114.031 382.484C114.301 382.484 114.559 382.508 114.805 382.543V384.5C114.605 384.453 114.184 384.43 113.809 384.43C111.641 384.43 110.562 385.73 110.562 387.395V395H108.43ZM122.27 395.199C118.953 395.199 116.996 393.102 116.996 389.762V387.91C116.996 384.535 119.152 382.461 122.105 382.461C125.094 382.461 127.227 384.582 127.227 387.91V389.387H119.105V390.008C119.105 391.918 120.207 393.383 122.258 393.383C123.699 393.383 124.672 392.691 124.883 391.93H127.062C126.875 393.266 125.387 395.199 122.27 395.199ZM119.105 387.852H125.117V387.652C125.117 385.613 123.922 384.277 122.117 384.277C120.312 384.277 119.105 385.613 119.105 387.652V387.852ZM130.156 386.211C130.156 383.586 132.348 382.461 134.75 382.461C137.41 382.461 139.168 383.844 139.168 385.93H137.199C137.129 385.062 136.332 384.148 134.68 384.148C133.238 384.148 132.207 384.816 132.207 385.988C132.207 387.453 133.871 387.652 135.266 387.898C137.574 388.309 139.484 388.953 139.484 391.344C139.484 393.805 137.516 395.199 134.562 395.199C131.82 395.199 129.934 393.969 129.934 391.754H132.008C132.172 392.844 132.934 393.523 134.656 393.523C136.602 393.523 137.398 392.656 137.398 391.602C137.398 390.23 136.027 389.984 134.316 389.645C132.02 389.176 130.156 388.637 130.156 386.211ZM147.629 395.199C144.312 395.199 142.355 393.102 142.355 389.762V387.91C142.355 384.535 144.512 382.461 147.465 382.461C150.453 382.461 152.586 384.582 152.586 387.91V389.387H144.465V390.008C144.465 391.918 145.566 393.383 147.617 393.383C149.059 393.383 150.031 392.691 150.242 391.93H152.422C152.234 393.266 150.746 395.199 147.629 395.199ZM144.465 387.852H150.477V387.652C150.477 385.613 149.281 384.277 147.477 384.277C145.672 384.277 144.465 385.613 144.465 387.652V387.852ZM156.289 395V382.672H158.41V384.57H158.516C158.82 383.75 159.711 382.484 161.891 382.484C162.16 382.484 162.418 382.508 162.664 382.543V384.5C162.465 384.453 162.043 384.43 161.668 384.43C159.5 384.43 158.422 385.73 158.422 387.395V395H156.289ZM168.711 395L164.375 382.672H166.719L169.754 392.785H169.836L173.105 382.672H175.367L170.902 395H168.711ZM182.598 395.199C179.281 395.199 177.324 393.102 177.324 389.762V387.91C177.324 384.535 179.48 382.461 182.434 382.461C185.422 382.461 187.555 384.582 187.555 387.91V389.387H179.434V390.008C179.434 391.918 180.535 393.383 182.586 393.383C184.027 393.383 185 392.691 185.211 391.93H187.391C187.203 393.266 185.715 395.199 182.598 395.199ZM179.434 387.852H185.445V387.652C185.445 385.613 184.25 384.277 182.445 384.277C180.641 384.277 179.434 385.613 179.434 387.652V387.852ZM195.922 386.211C195.922 383.586 198.113 382.461 200.516 382.461C203.176 382.461 204.934 383.844 204.934 385.93H202.965C202.895 385.062 202.098 384.148 200.445 384.148C199.004 384.148 197.973 384.816 197.973 385.988C197.973 387.453 199.637 387.652 201.031 387.898C203.34 388.309 205.25 388.953 205.25 391.344C205.25 393.805 203.281 395.199 200.328 395.199C197.586 395.199 195.699 393.969 195.699 391.754H197.773C197.938 392.844 198.699 393.523 200.422 393.523C202.367 393.523 203.164 392.656 203.164 391.602C203.164 390.23 201.793 389.984 200.082 389.645C197.785 389.176 195.922 388.637 195.922 386.211ZM213.453 382.461C216.512 382.461 218.773 384.477 218.773 387.922V389.727C218.773 393.219 216.512 395.199 213.453 395.199C210.336 395.199 208.121 393.242 208.121 389.727V387.922C208.121 384.594 210.371 382.461 213.453 382.461ZM213.465 384.289C211.484 384.289 210.242 385.871 210.242 388.098V389.574C210.242 391.848 211.402 393.383 213.465 393.383C215.504 393.383 216.641 391.848 216.641 389.574V388.098C216.641 385.859 215.445 384.289 213.465 384.289ZM232.344 382.672V395H230.246V392.949H230.129C229.777 393.957 228.617 395.199 226.461 395.199C223.988 395.199 222.242 394.086 222.242 391.215V382.672H224.363V390.641C224.363 392.68 225.582 393.324 227.047 393.324C228.852 393.324 230.223 392.012 230.223 390.43V382.672H232.344ZM236.516 395V382.672H238.613V384.91H238.73C239.035 383.938 239.891 382.473 242.469 382.473C244.953 382.473 246.652 383.82 246.652 386.586V395H244.531V387.266C244.531 385.332 243.535 384.348 241.859 384.348C239.691 384.348 238.637 386.012 238.637 388.133V395H236.516ZM254.949 382.484C256.684 382.484 258.031 383.246 258.523 384.5H258.629V378.16H260.75V395H258.711V393.031H258.605C258.242 394.285 256.707 395.176 254.902 395.176C252.031 395.176 250.168 393.16 250.168 390.02V387.652C250.168 384.5 252.078 382.484 254.949 382.484ZM255.383 384.324C253.461 384.324 252.301 385.719 252.301 388.074V389.562C252.301 391.941 253.484 393.336 255.441 393.336C257.375 393.336 258.629 391.965 258.629 389.762V387.652C258.629 385.695 257.258 384.324 255.383 384.324ZM274.531 382.484C276.266 382.484 277.648 383.27 278.223 384.605H278.328V382.672H280.355V399.09H278.234V393.137H278.129C277.602 394.414 276.23 395.188 274.496 395.188C271.625 395.188 269.809 393.16 269.809 389.926V387.758C269.809 384.559 271.672 382.484 274.531 382.484ZM275.023 384.336C273.113 384.336 271.941 385.754 271.941 388.086V389.586C271.941 391.965 273.102 393.359 275.07 393.359C277.027 393.359 278.234 391.977 278.234 389.785V387.664C278.234 385.707 276.91 384.336 275.023 384.336ZM294.547 382.672V395H292.449V392.949H292.332C291.98 393.957 290.82 395.199 288.664 395.199C286.191 395.199 284.445 394.086 284.445 391.215V382.672H286.566V390.641C286.566 392.68 287.785 393.324 289.25 393.324C291.055 393.324 292.426 392.012 292.426 390.43V382.672H294.547ZM302.047 395.199C299.656 395.199 298.016 393.699 298.016 391.414C298.016 389.258 299.516 387.793 302.352 387.793H305.574V386.574C305.574 385.004 304.578 384.289 302.996 384.289C301.438 384.289 300.781 384.887 300.535 385.742H298.484C298.672 383.656 300.312 382.473 303.066 382.473C305.609 382.473 307.707 383.562 307.707 386.586V395H305.668V393.371H305.574C304.977 394.355 303.863 395.199 302.047 395.199ZM302.633 393.406C304.297 393.406 305.574 392.281 305.574 390.793V389.41H302.527C300.863 389.41 300.184 390.242 300.184 391.344C300.184 392.75 301.355 393.406 302.633 393.406ZM311.891 395V378.16H314.012V395H311.891ZM318.559 395V382.672H320.68V395H318.559ZM318.113 378.875C318.113 378.02 318.758 377.398 319.602 377.398C320.492 377.398 321.137 378.02 321.137 378.875C321.137 379.719 320.492 380.34 319.602 380.34C318.758 380.34 318.113 379.719 318.113 378.875ZM325.848 382.707V379.613H327.945V382.707H330.734V384.453H327.945V391.508C327.945 392.949 328.438 393.324 329.938 393.324C330.242 393.324 330.711 393.301 330.91 393.277V395C330.734 395.035 329.867 395.105 329.398 395.105C326.469 395.105 325.836 393.98 325.836 391.543V384.453H323.949V382.707H325.848ZM344.105 382.672C343.906 383.398 339.746 394.988 339.746 395.012L339.488 395.68C338.504 398.316 337.262 399.324 335.117 399.324C334.742 399.324 334.203 399.289 333.898 399.219V397.484C334.086 397.52 334.555 397.555 334.801 397.555C336.184 397.555 336.898 396.992 337.273 395.609L337.402 395.152L332.879 382.672H335.234L338.492 392.902H338.586L341.855 382.672H344.105Z" fill="black"/>
<path d="M74 436.398C71.9844 436.398 70.3203 434.723 70.3203 432.695C70.3203 430.668 71.9844 429.004 74 429.004C76.0156 429.004 77.6797 430.668 77.6797 432.695C77.6797 434.723 76.0156 436.398 74 436.398ZM96.2188 439H94.2617V423.004H96.3828L101.598 435.191H101.668L106.871 423.004H108.98V439H107.023V427.41H106.906L102.5 437.57H100.742L96.3242 427.41H96.2188V439ZM116.68 439.199C114.289 439.199 112.648 437.699 112.648 435.414C112.648 433.258 114.148 431.793 116.984 431.793H120.207V430.574C120.207 429.004 119.211 428.289 117.629 428.289C116.07 428.289 115.414 428.887 115.168 429.742H113.117C113.305 427.656 114.945 426.473 117.699 426.473C120.242 426.473 122.34 427.562 122.34 430.586V439H120.301V437.371H120.207C119.609 438.355 118.496 439.199 116.68 439.199ZM117.266 437.406C118.93 437.406 120.207 436.281 120.207 434.793V433.41H117.16C115.496 433.41 114.816 434.242 114.816 435.344C114.816 436.75 115.988 437.406 117.266 437.406ZM126.746 439V426.672H128.867V439H126.746ZM126.301 422.875C126.301 422.02 126.945 421.398 127.789 421.398C128.68 421.398 129.324 422.02 129.324 422.875C129.324 423.719 128.68 424.34 127.789 424.34C126.945 424.34 126.301 423.719 126.301 422.875ZM133.344 439V426.672H135.441V428.91H135.559C135.863 427.938 136.719 426.473 139.297 426.473C141.781 426.473 143.48 427.82 143.48 430.586V439H141.359V431.266C141.359 429.332 140.363 428.348 138.688 428.348C136.52 428.348 135.465 430.012 135.465 432.133V439H133.344ZM148.285 426.707V423.613H150.383V426.707H153.172V428.453H150.383V435.508C150.383 436.949 150.875 437.324 152.375 437.324C152.68 437.324 153.148 437.301 153.348 437.277V439C153.172 439.035 152.305 439.105 151.836 439.105C148.906 439.105 148.273 437.98 148.273 435.543V428.453H146.387V426.707H148.285ZM159.969 439.199C157.578 439.199 155.938 437.699 155.938 435.414C155.938 433.258 157.438 431.793 160.273 431.793H163.496V430.574C163.496 429.004 162.5 428.289 160.918 428.289C159.359 428.289 158.703 428.887 158.457 429.742H156.406C156.594 427.656 158.234 426.473 160.988 426.473C163.531 426.473 165.629 427.562 165.629 430.586V439H163.59V437.371H163.496C162.898 438.355 161.785 439.199 159.969 439.199ZM160.555 437.406C162.219 437.406 163.496 436.281 163.496 434.793V433.41H160.449C158.785 433.41 158.105 434.242 158.105 435.344C158.105 436.75 159.277 437.406 160.555 437.406ZM170.035 439V426.672H172.156V439H170.035ZM169.59 422.875C169.59 422.02 170.234 421.398 171.078 421.398C171.969 421.398 172.613 422.02 172.613 422.875C172.613 423.719 171.969 424.34 171.078 424.34C170.234 424.34 169.59 423.719 169.59 422.875ZM176.633 439V426.672H178.73V428.91H178.848C179.152 427.938 180.008 426.473 182.586 426.473C185.07 426.473 186.77 427.82 186.77 430.586V439H184.648V431.266C184.648 429.332 183.652 428.348 181.977 428.348C179.809 428.348 178.754 430.012 178.754 432.133V439H176.633ZM195.723 433.809V431.805C195.723 428.57 197.703 426.461 200.867 426.461C203.949 426.461 205.543 428.371 205.602 430.258H203.527C203.398 429.52 202.824 428.348 200.902 428.348C198.887 428.348 197.844 429.73 197.844 431.887V433.82C197.844 435.965 199.004 437.324 200.902 437.324C202.719 437.324 203.398 436.504 203.621 435.555H205.684C205.613 437.395 204.125 439.199 200.867 439.199C197.691 439.199 195.723 437.125 195.723 433.809ZM213.781 426.461C216.84 426.461 219.102 428.477 219.102 431.922V433.727C219.102 437.219 216.84 439.199 213.781 439.199C210.664 439.199 208.449 437.242 208.449 433.727V431.922C208.449 428.594 210.699 426.461 213.781 426.461ZM213.793 428.289C211.812 428.289 210.57 429.871 210.57 432.098V433.574C210.57 435.848 211.73 437.383 213.793 437.383C215.832 437.383 216.969 435.848 216.969 433.574V432.098C216.969 429.859 215.773 428.289 213.793 428.289ZM222.664 439V426.672H224.762V428.91H224.879C225.184 427.938 226.039 426.473 228.617 426.473C231.102 426.473 232.801 427.82 232.801 430.586V439H230.68V431.266C230.68 429.332 229.684 428.348 228.008 428.348C225.84 428.348 224.785 430.012 224.785 432.133V439H222.664ZM237.605 426.707V423.613H239.703V426.707H242.492V428.453H239.703V435.508C239.703 436.949 240.195 437.324 241.695 437.324C242 437.324 242.469 437.301 242.668 437.277V439C242.492 439.035 241.625 439.105 241.156 439.105C238.227 439.105 237.594 437.98 237.594 435.543V428.453H235.707V426.707H237.605ZM246.148 439V426.672H248.27V428.57H248.375C248.68 427.75 249.57 426.484 251.75 426.484C252.02 426.484 252.277 426.508 252.523 426.543V428.5C252.324 428.453 251.902 428.43 251.527 428.43C249.359 428.43 248.281 429.73 248.281 431.395V439H246.148ZM260.047 426.461C263.105 426.461 265.367 428.477 265.367 431.922V433.727C265.367 437.219 263.105 439.199 260.047 439.199C256.93 439.199 254.715 437.242 254.715 433.727V431.922C254.715 428.594 256.965 426.461 260.047 426.461ZM260.059 428.289C258.078 428.289 256.836 429.871 256.836 432.098V433.574C256.836 435.848 257.996 437.383 260.059 437.383C262.098 437.383 263.234 435.848 263.234 433.574V432.098C263.234 429.859 262.039 428.289 260.059 428.289ZM269 439V422.16H271.121V439H269ZM285.547 426.461C288.605 426.461 290.867 428.477 290.867 431.922V433.727C290.867 437.219 288.605 439.199 285.547 439.199C282.43 439.199 280.215 437.242 280.215 433.727V431.922C280.215 428.594 282.465 426.461 285.547 426.461ZM285.559 428.289C283.578 428.289 282.336 429.871 282.336 432.098V433.574C282.336 435.848 283.496 437.383 285.559 437.383C287.598 437.383 288.734 435.848 288.734 433.574V432.098C288.734 429.859 287.539 428.289 285.559 428.289ZM297.148 439L292.812 426.672H295.156L298.191 436.785H298.273L301.543 426.672H303.805L299.34 439H297.148ZM311.035 439.199C307.719 439.199 305.762 437.102 305.762 433.762V431.91C305.762 428.535 307.918 426.461 310.871 426.461C313.859 426.461 315.992 428.582 315.992 431.91V433.387H307.871V434.008C307.871 435.918 308.973 437.383 311.023 437.383C312.465 437.383 313.438 436.691 313.648 435.93H315.828C315.641 437.266 314.152 439.199 311.035 439.199ZM307.871 431.852H313.883V431.652C313.883 429.613 312.688 428.277 310.883 428.277C309.078 428.277 307.871 429.613 307.871 431.652V431.852ZM319.695 439V426.672H321.816V428.57H321.922C322.227 427.75 323.117 426.484 325.297 426.484C325.566 426.484 325.824 426.508 326.07 426.543V428.5C325.871 428.453 325.449 428.43 325.074 428.43C322.906 428.43 321.828 429.73 321.828 431.395V439H319.695ZM344.199 426.672C344 427.398 339.84 438.988 339.84 439.012L339.582 439.68C338.598 442.316 337.355 443.324 335.211 443.324C334.836 443.324 334.297 443.289 333.992 443.219V441.484C334.18 441.52 334.648 441.555 334.895 441.555C336.277 441.555 336.992 440.992 337.367 439.609L337.496 439.152L332.973 426.672H335.328L338.586 436.902H338.68L341.949 426.672H344.199ZM351.758 426.461C354.816 426.461 357.078 428.477 357.078 431.922V433.727C357.078 437.219 354.816 439.199 351.758 439.199C348.641 439.199 346.426 437.242 346.426 433.727V431.922C346.426 428.594 348.676 426.461 351.758 426.461ZM351.77 428.289C349.789 428.289 348.547 429.871 348.547 432.098V433.574C348.547 435.848 349.707 437.383 351.77 437.383C353.809 437.383 354.945 435.848 354.945 433.574V432.098C354.945 429.859 353.75 428.289 351.77 428.289ZM370.648 426.672V439H368.551V436.949H368.434C368.082 437.957 366.922 439.199 364.766 439.199C362.293 439.199 360.547 438.086 360.547 435.215V426.672H362.668V434.641C362.668 436.68 363.887 437.324 365.352 437.324C367.156 437.324 368.527 436.012 368.527 434.43V426.672H370.648ZM375.008 439V426.672H377.129V428.57H377.234C377.539 427.75 378.43 426.484 380.609 426.484C380.879 426.484 381.137 426.508 381.383 426.543V428.5C381.184 428.453 380.762 428.43 380.387 428.43C378.219 428.43 377.141 429.73 377.141 431.395V439H375.008ZM389.059 433.809V431.805C389.059 428.57 391.039 426.461 394.203 426.461C397.285 426.461 398.879 428.371 398.938 430.258H396.863C396.734 429.52 396.16 428.348 394.238 428.348C392.223 428.348 391.18 429.73 391.18 431.887V433.82C391.18 435.965 392.34 437.324 394.238 437.324C396.055 437.324 396.734 436.504 396.957 435.555H399.02C398.949 437.395 397.461 439.199 394.203 439.199C391.027 439.199 389.059 437.125 389.059 433.809ZM402.57 439V426.672H404.691V428.57H404.797C405.102 427.75 405.992 426.484 408.172 426.484C408.441 426.484 408.699 426.508 408.945 426.543V428.5C408.746 428.453 408.324 428.43 407.949 428.43C405.781 428.43 404.703 429.73 404.703 431.395V439H402.57ZM416.41 439.199C413.094 439.199 411.137 437.102 411.137 433.762V431.91C411.137 428.535 413.293 426.461 416.246 426.461C419.234 426.461 421.367 428.582 421.367 431.91V433.387H413.246V434.008C413.246 435.918 414.348 437.383 416.398 437.383C417.84 437.383 418.812 436.691 419.023 435.93H421.203C421.016 437.266 419.527 439.199 416.41 439.199ZM413.246 431.852H419.258V431.652C419.258 429.613 418.062 428.277 416.258 428.277C414.453 428.277 413.246 429.613 413.246 431.652V431.852ZM428.211 439.199C425.82 439.199 424.18 437.699 424.18 435.414C424.18 433.258 425.68 431.793 428.516 431.793H431.738V430.574C431.738 429.004 430.742 428.289 429.16 428.289C427.602 428.289 426.945 428.887 426.699 429.742H424.648C424.836 427.656 426.477 426.473 429.23 426.473C431.773 426.473 433.871 427.562 433.871 430.586V439H431.832V437.371H431.738C431.141 438.355 430.027 439.199 428.211 439.199ZM428.797 437.406C430.461 437.406 431.738 436.281 431.738 434.793V433.41H428.691C427.027 433.41 426.348 434.242 426.348 435.344C426.348 436.75 427.52 437.406 428.797 437.406ZM438.676 426.707V423.613H440.773V426.707H443.562V428.453H440.773V435.508C440.773 436.949 441.266 437.324 442.766 437.324C443.07 437.324 443.539 437.301 443.738 437.277V439C443.562 439.035 442.695 439.105 442.227 439.105C439.297 439.105 438.664 437.98 438.664 435.543V428.453H436.777V426.707H438.676ZM447.324 439V426.672H449.445V439H447.324ZM446.879 422.875C446.879 422.02 447.523 421.398 448.367 421.398C449.258 421.398 449.902 422.02 449.902 422.875C449.902 423.719 449.258 424.34 448.367 424.34C447.523 424.34 446.879 423.719 446.879 422.875ZM458.656 426.461C461.715 426.461 463.977 428.477 463.977 431.922V433.727C463.977 437.219 461.715 439.199 458.656 439.199C455.539 439.199 453.324 437.242 453.324 433.727V431.922C453.324 428.594 455.574 426.461 458.656 426.461ZM458.668 428.289C456.688 428.289 455.445 429.871 455.445 432.098V433.574C455.445 435.848 456.605 437.383 458.668 437.383C460.707 437.383 461.844 435.848 461.844 433.574V432.098C461.844 429.859 460.648 428.289 458.668 428.289ZM467.539 439V426.672H469.637V428.91H469.754C470.059 427.938 470.914 426.473 473.492 426.473C475.977 426.473 477.676 427.82 477.676 430.586V439H475.555V431.266C475.555 429.332 474.559 428.348 472.883 428.348C470.715 428.348 469.66 430.012 469.66 432.133V439H467.539ZM481.203 430.211C481.203 427.586 483.395 426.461 485.797 426.461C488.457 426.461 490.215 427.844 490.215 429.93H488.246C488.176 429.062 487.379 428.148 485.727 428.148C484.285 428.148 483.254 428.816 483.254 429.988C483.254 431.453 484.918 431.652 486.312 431.898C488.621 432.309 490.531 432.953 490.531 435.344C490.531 437.805 488.562 439.199 485.609 439.199C482.867 439.199 480.98 437.969 480.98 435.754H483.055C483.219 436.844 483.98 437.523 485.703 437.523C487.648 437.523 488.445 436.656 488.445 435.602C488.445 434.23 487.074 433.984 485.363 433.645C483.066 433.176 481.203 432.637 481.203 430.211Z" fill="black"/>
<path d="M74 480.398C71.9844 480.398 70.3203 478.723 70.3203 476.695C70.3203 474.668 71.9844 473.004 74 473.004C76.0156 473.004 77.6797 474.668 77.6797 476.695C77.6797 478.723 76.0156 480.398 74 480.398ZM105.898 471.387H103.742C103.32 469.676 101.938 468.621 99.9805 468.621C97.332 468.621 95.7383 470.578 95.7383 473.883V476.039C95.7383 479.414 97.3086 481.383 100.051 481.383C102.605 481.383 103.906 479.941 103.906 477.961V476.484H99.8633V474.621H106.004V477.914C106.004 480.996 103.883 483.328 100.062 483.328C95.9258 483.328 93.582 480.621 93.582 476.051V473.871C93.582 469.465 96.0195 466.676 100.027 466.676C103.25 466.676 105.488 468.609 105.898 471.387ZM114.582 483.199C111.266 483.199 109.309 481.102 109.309 477.762V475.91C109.309 472.535 111.465 470.461 114.418 470.461C117.406 470.461 119.539 472.582 119.539 475.91V477.387H111.418V478.008C111.418 479.918 112.52 481.383 114.57 481.383C116.012 481.383 116.984 480.691 117.195 479.93H119.375C119.188 481.266 117.699 483.199 114.582 483.199ZM111.418 475.852H117.43V475.652C117.43 473.613 116.234 472.277 114.43 472.277C112.625 472.277 111.418 473.613 111.418 475.652V475.852ZM123.055 483V470.672H125.152V472.91H125.27C125.574 471.938 126.43 470.473 129.008 470.473C131.492 470.473 133.191 471.82 133.191 474.586V483H131.07V475.266C131.07 473.332 130.074 472.348 128.398 472.348C126.23 472.348 125.176 474.012 125.176 476.133V483H123.055ZM141.98 483.199C138.664 483.199 136.707 481.102 136.707 477.762V475.91C136.707 472.535 138.863 470.461 141.816 470.461C144.805 470.461 146.938 472.582 146.938 475.91V477.387H138.816V478.008C138.816 479.918 139.918 481.383 141.969 481.383C143.41 481.383 144.383 480.691 144.594 479.93H146.773C146.586 481.266 145.098 483.199 141.98 483.199ZM138.816 475.852H144.828V475.652C144.828 473.613 143.633 472.277 141.828 472.277C140.023 472.277 138.816 473.613 138.816 475.652V475.852ZM150.641 483V470.672H152.762V472.57H152.867C153.172 471.75 154.062 470.484 156.242 470.484C156.512 470.484 156.77 470.508 157.016 470.543V472.5C156.816 472.453 156.395 472.43 156.02 472.43C153.852 472.43 152.773 473.73 152.773 475.395V483H150.641ZM163.18 483.199C160.789 483.199 159.148 481.699 159.148 479.414C159.148 477.258 160.648 475.793 163.484 475.793H166.707V474.574C166.707 473.004 165.711 472.289 164.129 472.289C162.57 472.289 161.914 472.887 161.668 473.742H159.617C159.805 471.656 161.445 470.473 164.199 470.473C166.742 470.473 168.84 471.562 168.84 474.586V483H166.801V481.371H166.707C166.109 482.355 164.996 483.199 163.18 483.199ZM163.766 481.406C165.43 481.406 166.707 480.281 166.707 478.793V477.41H163.66C161.996 477.41 161.316 478.242 161.316 479.344C161.316 480.75 162.488 481.406 163.766 481.406ZM173.645 470.707V467.613H175.742V470.707H178.531V472.453H175.742V479.508C175.742 480.949 176.234 481.324 177.734 481.324C178.039 481.324 178.508 481.301 178.707 481.277V483C178.531 483.035 177.664 483.105 177.195 483.105C174.266 483.105 173.633 481.98 173.633 479.543V472.453H171.746V470.707H173.645ZM186.676 483.199C183.359 483.199 181.402 481.102 181.402 477.762V475.91C181.402 472.535 183.559 470.461 186.512 470.461C189.5 470.461 191.633 472.582 191.633 475.91V477.387H183.512V478.008C183.512 479.918 184.613 481.383 186.664 481.383C188.105 481.383 189.078 480.691 189.289 479.93H191.469C191.281 481.266 189.793 483.199 186.676 483.199ZM183.512 475.852H189.523V475.652C189.523 473.613 188.328 472.277 186.523 472.277C184.719 472.277 183.512 473.613 183.512 475.652V475.852ZM201.336 483H199.098L204.758 467.004H206.996L212.645 483H210.371L208.801 478.289H202.906L201.336 483ZM205.895 469.5H205.812L203.469 476.543H208.25L205.895 469.5ZM217.637 483H215.48V467.004H217.637V483ZM233.152 483.188C231.453 483.188 230.188 482.461 229.613 481.172H229.508V487.09H227.387V470.66H229.426V472.617H229.531C230.035 471.293 231.453 470.484 233.223 470.484C236.117 470.484 237.934 472.523 237.934 475.781V477.879C237.934 481.16 236.094 483.188 233.152 483.188ZM232.719 481.348C234.664 481.348 235.801 479.941 235.801 477.492V476.203C235.801 473.73 234.664 472.324 232.66 472.324C230.715 472.324 229.508 473.684 229.508 475.898V478.02C229.508 479.988 230.82 481.348 232.719 481.348ZM246.207 483.199C242.891 483.199 240.934 481.102 240.934 477.762V475.91C240.934 472.535 243.09 470.461 246.043 470.461C249.031 470.461 251.164 472.582 251.164 475.91V477.387H243.043V478.008C243.043 479.918 244.145 481.383 246.195 481.383C247.637 481.383 248.609 480.691 248.82 479.93H251C250.812 481.266 249.324 483.199 246.207 483.199ZM243.043 475.852H249.055V475.652C249.055 473.613 247.859 472.277 246.055 472.277C244.25 472.277 243.043 473.613 243.043 475.652V475.852ZM254.867 483V470.672H256.988V472.57H257.094C257.398 471.75 258.289 470.484 260.469 470.484C260.738 470.484 260.996 470.508 261.242 470.543V472.5C261.043 472.453 260.621 472.43 260.246 472.43C258.078 472.43 257 473.73 257 475.395V483H254.867ZM265.52 470.707V467.613H267.617V470.707H270.406V472.453H267.617V479.508C267.617 480.949 268.109 481.324 269.609 481.324C269.914 481.324 270.383 481.301 270.582 481.277V483C270.406 483.035 269.539 483.105 269.07 483.105C266.141 483.105 265.508 481.98 265.508 479.543V472.453H263.621V470.707H265.52ZM283.883 470.672V483H281.785V480.949H281.668C281.316 481.957 280.156 483.199 278 483.199C275.527 483.199 273.781 482.086 273.781 479.215V470.672H275.902V478.641C275.902 480.68 277.121 481.324 278.586 481.324C280.391 481.324 281.762 480.012 281.762 478.43V470.672H283.883ZM288.242 483V470.672H290.363V472.57H290.469C290.773 471.75 291.664 470.484 293.844 470.484C294.113 470.484 294.371 470.508 294.617 470.543V472.5C294.418 472.453 293.996 472.43 293.621 472.43C291.453 472.43 290.375 473.73 290.375 475.395V483H288.242ZM303.266 483.188C301.531 483.188 300.16 482.438 299.609 481.172H299.504V483H297.465V466.16H299.586V472.617H299.691C300.078 471.34 301.543 470.484 303.324 470.484C306.23 470.484 308.047 472.512 308.047 475.781V477.879C308.047 481.16 306.207 483.188 303.266 483.188ZM302.855 481.348C304.789 481.348 305.914 479.941 305.914 477.516V476.215C305.914 473.754 304.777 472.324 302.797 472.324C300.828 472.324 299.586 473.719 299.586 475.945V477.961C299.586 479.941 300.957 481.348 302.855 481.348ZM314.961 483.199C312.57 483.199 310.93 481.699 310.93 479.414C310.93 477.258 312.43 475.793 315.266 475.793H318.488V474.574C318.488 473.004 317.492 472.289 315.91 472.289C314.352 472.289 313.695 472.887 313.449 473.742H311.398C311.586 471.656 313.227 470.473 315.98 470.473C318.523 470.473 320.621 471.562 320.621 474.586V483H318.582V481.371H318.488C317.891 482.355 316.777 483.199 314.961 483.199ZM315.547 481.406C317.211 481.406 318.488 480.281 318.488 478.793V477.41H315.441C313.777 477.41 313.098 478.242 313.098 479.344C313.098 480.75 314.27 481.406 315.547 481.406ZM325.426 470.707V467.613H327.523V470.707H330.312V472.453H327.523V479.508C327.523 480.949 328.016 481.324 329.516 481.324C329.82 481.324 330.289 481.301 330.488 481.277V483C330.312 483.035 329.445 483.105 328.977 483.105C326.047 483.105 325.414 481.98 325.414 479.543V472.453H323.527V470.707H325.426ZM338.516 470.461C341.574 470.461 343.836 472.477 343.836 475.922V477.727C343.836 481.219 341.574 483.199 338.516 483.199C335.398 483.199 333.184 481.242 333.184 477.727V475.922C333.184 472.594 335.434 470.461 338.516 470.461ZM338.527 472.289C336.547 472.289 335.305 473.871 335.305 476.098V477.574C335.305 479.848 336.465 481.383 338.527 481.383C340.566 481.383 341.703 479.848 341.703 477.574V476.098C341.703 473.859 340.508 472.289 338.527 472.289ZM347.586 483V470.672H349.707V472.57H349.812C350.117 471.75 351.008 470.484 353.188 470.484C353.457 470.484 353.715 470.508 353.961 470.543V472.5C353.762 472.453 353.34 472.43 352.965 472.43C350.797 472.43 349.719 473.73 349.719 475.395V483H347.586ZM356.164 474.211C356.164 471.586 358.355 470.461 360.758 470.461C363.418 470.461 365.176 471.844 365.176 473.93H363.207C363.137 473.062 362.34 472.148 360.688 472.148C359.246 472.148 358.215 472.816 358.215 473.988C358.215 475.453 359.879 475.652 361.273 475.898C363.582 476.309 365.492 476.953 365.492 479.344C365.492 481.805 363.523 483.199 360.57 483.199C357.828 483.199 355.941 481.969 355.941 479.754H358.016C358.18 480.844 358.941 481.523 360.664 481.523C362.609 481.523 363.406 480.656 363.406 479.602C363.406 478.23 362.035 477.984 360.324 477.645C358.027 477.176 356.164 476.637 356.164 474.211Z" fill="black"/>
<path d="M70.5 217.211C70.5 214.586 72.6914 213.461 75.0938 213.461C77.7539 213.461 79.5117 214.844 79.5117 216.93H77.543C77.4727 216.062 76.6758 215.148 75.0234 215.148C73.582 215.148 72.5508 215.816 72.5508 216.988C72.5508 218.453 74.2148 218.652 75.6094 218.898C77.918 219.309 79.8281 219.953 79.8281 222.344C79.8281 224.805 77.8594 226.199 74.9062 226.199C72.1641 226.199 70.2773 224.969 70.2773 222.754H72.3516C72.5156 223.844 73.2773 224.523 75 224.523C76.9453 224.523 77.7422 223.656 77.7422 222.602C77.7422 221.23 76.3711 220.984 74.6602 220.645C72.3633 220.176 70.5 219.637 70.5 217.211ZM83.332 226V209.16H85.4531V215.91H85.5586C85.8047 215.055 86.8125 213.473 89.3789 213.473C91.7578 213.473 93.5156 214.844 93.5156 217.609V226H91.3945V218.289C91.3945 216.355 90.3281 215.348 88.6641 215.348C86.5547 215.348 85.4531 217 85.4531 219.133V226H83.332ZM97.9102 226V213.672H100.031V226H97.9102ZM97.4648 209.875C97.4648 209.02 98.1094 208.398 98.9531 208.398C99.8438 208.398 100.488 209.02 100.488 209.875C100.488 210.719 99.8438 211.34 98.9531 211.34C98.1094 211.34 97.4648 210.719 97.4648 209.875ZM109.184 226.199C105.867 226.199 103.91 224.102 103.91 220.762V218.91C103.91 215.535 106.066 213.461 109.02 213.461C112.008 213.461 114.141 215.582 114.141 218.91V220.387H106.02V221.008C106.02 222.918 107.121 224.383 109.172 224.383C110.613 224.383 111.586 223.691 111.797 222.93H113.977C113.789 224.266 112.301 226.199 109.184 226.199ZM106.02 218.852H112.031V218.652C112.031 216.613 110.836 215.277 109.031 215.277C107.227 215.277 106.02 216.613 106.02 218.652V218.852ZM117.727 226V209.16H119.848V226H117.727ZM128.285 213.484C130.02 213.484 131.367 214.246 131.859 215.5H131.965V209.16H134.086V226H132.047V224.031H131.941C131.578 225.285 130.043 226.176 128.238 226.176C125.367 226.176 123.504 224.16 123.504 221.02V218.652C123.504 215.5 125.414 213.484 128.285 213.484ZM128.719 215.324C126.797 215.324 125.637 216.719 125.637 219.074V220.562C125.637 222.941 126.82 224.336 128.777 224.336C130.711 224.336 131.965 222.965 131.965 220.762V218.652C131.965 216.695 130.594 215.324 128.719 215.324ZM137.719 217.211C137.719 214.586 139.91 213.461 142.312 213.461C144.973 213.461 146.73 214.844 146.73 216.93H144.762C144.691 216.062 143.895 215.148 142.242 215.148C140.801 215.148 139.77 215.816 139.77 216.988C139.77 218.453 141.434 218.652 142.828 218.898C145.137 219.309 147.047 219.953 147.047 222.344C147.047 224.805 145.078 226.199 142.125 226.199C139.383 226.199 137.496 224.969 137.496 222.754H139.57C139.734 223.844 140.496 224.523 142.219 224.523C144.164 224.523 144.961 223.656 144.961 222.602C144.961 221.23 143.59 220.984 141.879 220.645C139.582 220.176 137.719 219.637 137.719 217.211ZM165.809 213.672C165.609 214.398 161.449 225.988 161.449 226.012L161.191 226.68C160.207 229.316 158.965 230.324 156.82 230.324C156.445 230.324 155.906 230.289 155.602 230.219V228.484C155.789 228.52 156.258 228.555 156.504 228.555C157.887 228.555 158.602 227.992 158.977 226.609L159.105 226.152L154.582 213.672H156.938L160.195 223.902H160.289L163.559 213.672H165.809ZM173.367 213.461C176.426 213.461 178.688 215.477 178.688 218.922V220.727C178.688 224.219 176.426 226.199 173.367 226.199C170.25 226.199 168.035 224.242 168.035 220.727V218.922C168.035 215.594 170.285 213.461 173.367 213.461ZM173.379 215.289C171.398 215.289 170.156 216.871 170.156 219.098V220.574C170.156 222.848 171.316 224.383 173.379 224.383C175.418 224.383 176.555 222.848 176.555 220.574V219.098C176.555 216.859 175.359 215.289 173.379 215.289ZM192.258 213.672V226H190.16V223.949H190.043C189.691 224.957 188.531 226.199 186.375 226.199C183.902 226.199 182.156 225.086 182.156 222.215V213.672H184.277V221.641C184.277 223.68 185.496 224.324 186.961 224.324C188.766 224.324 190.137 223.012 190.137 221.43V213.672H192.258ZM196.617 226V213.672H198.738V215.57H198.844C199.148 214.75 200.039 213.484 202.219 213.484C202.488 213.484 202.746 213.508 202.992 213.543V215.5C202.793 215.453 202.371 215.43 201.996 215.43C199.828 215.43 198.75 216.73 198.75 218.395V226H196.617ZM214.594 226.199C212.203 226.199 210.562 224.699 210.562 222.414C210.562 220.258 212.062 218.793 214.898 218.793H218.121V217.574C218.121 216.004 217.125 215.289 215.543 215.289C213.984 215.289 213.328 215.887 213.082 216.742H211.031C211.219 214.656 212.859 213.473 215.613 213.473C218.156 213.473 220.254 214.562 220.254 217.586V226H218.215V224.371H218.121C217.523 225.355 216.41 226.199 214.594 226.199ZM215.18 224.406C216.844 224.406 218.121 223.281 218.121 221.793V220.41H215.074C213.41 220.41 212.73 221.242 212.73 222.344C212.73 223.75 213.902 224.406 215.18 224.406ZM234.375 213.672V226H232.277V223.949H232.16C231.809 224.957 230.648 226.199 228.492 226.199C226.02 226.199 224.273 225.086 224.273 222.215V213.672H226.395V221.641C226.395 223.68 227.613 224.324 229.078 224.324C230.883 224.324 232.254 223.012 232.254 221.43V213.672H234.375ZM242.73 213.484C244.465 213.484 245.812 214.246 246.305 215.5H246.41V209.16H248.531V226H246.492V224.031H246.387C246.023 225.285 244.488 226.176 242.684 226.176C239.812 226.176 237.949 224.16 237.949 221.02V218.652C237.949 215.5 239.859 213.484 242.73 213.484ZM243.164 215.324C241.242 215.324 240.082 216.719 240.082 219.074V220.562C240.082 222.941 241.266 224.336 243.223 224.336C245.156 224.336 246.41 222.965 246.41 220.762V218.652C246.41 216.695 245.039 215.324 243.164 215.324ZM253.043 226V213.672H255.164V226H253.043ZM252.598 209.875C252.598 209.02 253.242 208.398 254.086 208.398C254.977 208.398 255.621 209.02 255.621 209.875C255.621 210.719 254.977 211.34 254.086 211.34C253.242 211.34 252.598 210.719 252.598 209.875ZM264.375 213.461C267.434 213.461 269.695 215.477 269.695 218.922V220.727C269.695 224.219 267.434 226.199 264.375 226.199C261.258 226.199 259.043 224.242 259.043 220.727V218.922C259.043 215.594 261.293 213.461 264.375 213.461ZM264.387 215.289C262.406 215.289 261.164 216.871 261.164 219.098V220.574C261.164 222.848 262.324 224.383 264.387 224.383C266.426 224.383 267.562 222.848 267.562 220.574V219.098C267.562 216.859 266.367 215.289 264.387 215.289ZM279.75 226V215.453H277.676V213.707H279.75V212.465C279.75 210.098 280.863 209.02 283.617 209.02C284.168 209.02 284.777 209.066 285.023 209.09V210.812C284.836 210.789 284.227 210.766 283.922 210.766C282.469 210.766 281.848 211.199 281.848 212.641V213.707H284.707V215.453H281.871V226H279.75ZM288.281 226V213.672H290.402V215.57H290.508C290.812 214.75 291.703 213.484 293.883 213.484C294.152 213.484 294.41 213.508 294.656 213.543V215.5C294.457 215.453 294.035 215.43 293.66 215.43C291.492 215.43 290.414 216.73 290.414 218.395V226H288.281ZM302.18 213.461C305.238 213.461 307.5 215.477 307.5 218.922V220.727C307.5 224.219 305.238 226.199 302.18 226.199C299.062 226.199 296.848 224.242 296.848 220.727V218.922C296.848 215.594 299.098 213.461 302.18 213.461ZM302.191 215.289C300.211 215.289 298.969 216.871 298.969 219.098V220.574C298.969 222.848 300.129 224.383 302.191 224.383C304.23 224.383 305.367 222.848 305.367 220.574V219.098C305.367 216.859 304.172 215.289 302.191 215.289ZM311.062 226V213.672H313.16V215.629H313.277C313.559 214.762 314.344 213.473 316.617 213.473C318.48 213.473 319.652 214.469 320.039 215.793H320.133C320.637 214.586 321.809 213.473 323.895 213.473C326.414 213.473 327.949 214.855 327.949 217.328V226H325.828V217.938C325.828 216.367 324.938 215.336 323.273 215.336C321.738 215.336 320.555 216.508 320.555 218.195V226H318.457V218.02C318.457 216.414 317.461 215.336 315.844 215.336C314.297 215.336 313.184 216.484 313.184 218.172V226H311.062ZM338.25 226H336.012L341.672 210.004H343.91L349.559 226H347.285L345.715 221.289H339.82L338.25 226ZM342.809 212.5H342.727L340.383 219.543H345.164L342.809 212.5ZM354.551 226H352.395V210.004H354.551V226ZM364.289 226V213.672H366.387V215.629H366.504C366.785 214.762 367.57 213.473 369.844 213.473C371.707 213.473 372.879 214.469 373.266 215.793H373.359C373.863 214.586 375.035 213.473 377.121 213.473C379.641 213.473 381.176 214.855 381.176 217.328V226H379.055V217.938C379.055 216.367 378.164 215.336 376.5 215.336C374.965 215.336 373.781 216.508 373.781 218.195V226H371.684V218.02C371.684 216.414 370.688 215.336 369.07 215.336C367.523 215.336 366.41 216.484 366.41 218.172V226H364.289ZM385.582 226V213.672H387.703V226H385.582ZM385.137 209.875C385.137 209.02 385.781 208.398 386.625 208.398C387.516 208.398 388.16 209.02 388.16 209.875C388.16 210.719 387.516 211.34 386.625 211.34C385.781 211.34 385.137 210.719 385.137 209.875ZM391.594 217.211C391.594 214.586 393.785 213.461 396.188 213.461C398.848 213.461 400.605 214.844 400.605 216.93H398.637C398.566 216.062 397.77 215.148 396.117 215.148C394.676 215.148 393.645 215.816 393.645 216.988C393.645 218.453 395.309 218.652 396.703 218.898C399.012 219.309 400.922 219.953 400.922 222.344C400.922 224.805 398.953 226.199 396 226.199C393.258 226.199 391.371 224.969 391.371 222.754H393.445C393.609 223.844 394.371 224.523 396.094 224.523C398.039 224.523 398.836 223.656 398.836 222.602C398.836 221.23 397.465 220.984 395.754 220.645C393.457 220.176 391.594 219.637 391.594 217.211ZM414.398 213.672V226H412.301V223.949H412.184C411.832 224.957 410.672 226.199 408.516 226.199C406.043 226.199 404.297 225.086 404.297 222.215V213.672H406.418V221.641C406.418 223.68 407.637 224.324 409.102 224.324C410.906 224.324 412.277 223.012 412.277 221.43V213.672H414.398ZM417.984 217.211C417.984 214.586 420.176 213.461 422.578 213.461C425.238 213.461 426.996 214.844 426.996 216.93H425.027C424.957 216.062 424.16 215.148 422.508 215.148C421.066 215.148 420.035 215.816 420.035 216.988C420.035 218.453 421.699 218.652 423.094 218.898C425.402 219.309 427.312 219.953 427.312 222.344C427.312 224.805 425.344 226.199 422.391 226.199C419.648 226.199 417.762 224.969 417.762 222.754H419.836C420 223.844 420.762 224.523 422.484 224.523C424.43 224.523 425.227 223.656 425.227 222.602C425.227 221.23 423.855 220.984 422.145 220.645C419.848 220.176 417.984 219.637 417.984 217.211ZM435.457 226.199C432.141 226.199 430.184 224.102 430.184 220.762V218.91C430.184 215.535 432.34 213.461 435.293 213.461C438.281 213.461 440.414 215.582 440.414 218.91V220.387H432.293V221.008C432.293 222.918 433.395 224.383 435.445 224.383C436.887 224.383 437.859 223.691 438.07 222.93H440.25C440.062 224.266 438.574 226.199 435.457 226.199ZM432.293 218.852H438.305V218.652C438.305 216.613 437.109 215.277 435.305 215.277C433.5 215.277 432.293 216.613 432.293 218.652V218.852ZM464.461 213.672L461.18 226H459.07L456.293 216.59H456.234L453.527 226H451.406L447.949 213.672H450.305L452.484 223.34H452.566L455.262 213.672H457.254L460.031 223.34H460.113L462.34 213.672H464.461ZM467.262 226V209.16H469.383V215.91H469.488C469.734 215.055 470.742 213.473 473.309 213.473C475.688 213.473 477.445 214.844 477.445 217.609V226H475.324V218.289C475.324 216.355 474.258 215.348 472.594 215.348C470.484 215.348 469.383 217 469.383 219.133V226H467.262ZM481.84 226V213.672H483.961V226H481.84ZM481.395 209.875C481.395 209.02 482.039 208.398 482.883 208.398C483.773 208.398 484.418 209.02 484.418 209.875C484.418 210.719 483.773 211.34 482.883 211.34C482.039 211.34 481.395 210.719 481.395 209.875ZM488.508 226V209.16H490.629V226H488.508ZM499.559 226.199C496.242 226.199 494.285 224.102 494.285 220.762V218.91C494.285 215.535 496.441 213.461 499.395 213.461C502.383 213.461 504.516 215.582 504.516 218.91V220.387H496.395V221.008C496.395 222.918 497.496 224.383 499.547 224.383C500.988 224.383 501.961 223.691 502.172 222.93H504.352C504.164 224.266 502.676 226.199 499.559 226.199ZM496.395 218.852H502.406V218.652C502.406 216.613 501.211 215.277 499.406 215.277C497.602 215.277 496.395 216.613 496.395 218.652V218.852ZM515.625 221.477V226H513.504V209.16H515.625V219.191H515.707L520.676 213.672H523.125L518.297 219.016L523.441 226H520.91L516.738 220.34L515.625 221.477ZM530.332 226.199C527.016 226.199 525.059 224.102 525.059 220.762V218.91C525.059 215.535 527.215 213.461 530.168 213.461C533.156 213.461 535.289 215.582 535.289 218.91V220.387H527.168V221.008C527.168 222.918 528.27 224.383 530.32 224.383C531.762 224.383 532.734 223.691 532.945 222.93H535.125C534.938 224.266 533.449 226.199 530.332 226.199ZM527.168 218.852H533.18V218.652C533.18 216.613 531.984 215.277 530.18 215.277C528.375 215.277 527.168 216.613 527.168 218.652V218.852ZM543.48 226.199C540.164 226.199 538.207 224.102 538.207 220.762V218.91C538.207 215.535 540.363 213.461 543.316 213.461C546.305 213.461 548.438 215.582 548.438 218.91V220.387H540.316V221.008C540.316 222.918 541.418 224.383 543.469 224.383C544.91 224.383 545.883 223.691 546.094 222.93H548.273C548.086 224.266 546.598 226.199 543.48 226.199ZM540.316 218.852H546.328V218.652C546.328 216.613 545.133 215.277 543.328 215.277C541.523 215.277 540.316 216.613 540.316 218.652V218.852ZM557.73 226.188C556.031 226.188 554.766 225.461 554.191 224.172H554.086V230.09H551.965V213.66H554.004V215.617H554.109C554.613 214.293 556.031 213.484 557.801 213.484C560.695 213.484 562.512 215.523 562.512 218.781V220.879C562.512 224.16 560.672 226.188 557.73 226.188ZM557.297 224.348C559.242 224.348 560.379 222.941 560.379 220.492V219.203C560.379 216.73 559.242 215.324 557.238 215.324C555.293 215.324 554.086 216.684 554.086 218.898V221.02C554.086 222.988 555.398 224.348 557.297 224.348ZM566.402 226V213.672H568.523V226H566.402ZM565.957 209.875C565.957 209.02 566.602 208.398 567.445 208.398C568.336 208.398 568.98 209.02 568.98 209.875C568.98 210.719 568.336 211.34 567.445 211.34C566.602 211.34 565.957 210.719 565.957 209.875ZM573 226V213.672H575.098V215.91H575.215C575.52 214.938 576.375 213.473 578.953 213.473C581.438 213.473 583.137 214.82 583.137 217.586V226H581.016V218.266C581.016 216.332 580.02 215.348 578.344 215.348C576.176 215.348 575.121 217.012 575.121 219.133V226H573ZM591.703 228.719C593.871 228.719 594.938 227.559 594.938 225.625V223.844H594.82C594.34 224.91 593.074 225.777 591.363 225.777C588.633 225.777 586.5 223.844 586.5 220.586V218.699C586.5 215.441 588.621 213.484 591.352 213.484C593.203 213.484 594.516 214.516 594.926 215.523H595.031V213.672H597.059V225.637C597.059 229.035 594.785 230.512 591.633 230.512C588.48 230.512 586.934 228.918 586.77 227.125H588.926C589.09 227.992 590.086 228.719 591.703 228.719ZM591.879 215.324C589.875 215.324 588.633 216.836 588.633 219.086V220.234C588.633 222.473 589.992 223.973 591.902 223.973C593.871 223.973 594.938 222.355 594.938 220.598V218.758C594.938 216.953 593.812 215.324 591.879 215.324ZM71.3789 255V242.672H73.5V255H71.3789ZM70.9336 238.875C70.9336 238.02 71.5781 237.398 72.4219 237.398C73.3125 237.398 73.957 238.02 73.957 238.875C73.957 239.719 73.3125 240.34 72.4219 240.34C71.5781 240.34 70.9336 239.719 70.9336 238.875ZM82.1602 242.484C83.8945 242.484 85.2422 243.246 85.7344 244.5H85.8398V238.16H87.9609V255H85.9219V253.031H85.8164C85.4531 254.285 83.918 255.176 82.1133 255.176C79.2422 255.176 77.3789 253.16 77.3789 250.02V247.652C77.3789 244.5 79.2891 242.484 82.1602 242.484ZM82.5938 244.324C80.6719 244.324 79.5117 245.719 79.5117 248.074V249.562C79.5117 251.941 80.6953 253.336 82.6523 253.336C84.5859 253.336 85.8398 251.965 85.8398 249.762V247.652C85.8398 245.695 84.4688 244.324 82.5938 244.324ZM96.8555 255.199C93.5391 255.199 91.582 253.102 91.582 249.762V247.91C91.582 244.535 93.7383 242.461 96.6914 242.461C99.6797 242.461 101.812 244.582 101.812 247.91V249.387H93.6914V250.008C93.6914 251.918 94.793 253.383 96.8438 253.383C98.2852 253.383 99.2578 252.691 99.4688 251.93H101.648C101.461 253.266 99.9727 255.199 96.8555 255.199ZM93.6914 247.852H99.7031V247.652C99.7031 245.613 98.5078 244.277 96.7031 244.277C94.8984 244.277 93.6914 245.613 93.6914 247.652V247.852ZM105.328 255V242.672H107.426V244.91H107.543C107.848 243.938 108.703 242.473 111.281 242.473C113.766 242.473 115.465 243.82 115.465 246.586V255H113.344V247.266C113.344 245.332 112.348 244.348 110.672 244.348C108.504 244.348 107.449 246.012 107.449 248.133V255H105.328ZM120.27 242.707V239.613H122.367V242.707H125.156V244.453H122.367V251.508C122.367 252.949 122.859 253.324 124.359 253.324C124.664 253.324 125.133 253.301 125.332 253.277V255C125.156 255.035 124.289 255.105 123.82 255.105C120.891 255.105 120.258 253.98 120.258 251.543V244.453H118.371V242.707H120.27ZM128.918 255V242.672H131.039V255H128.918ZM128.473 238.875C128.473 238.02 129.117 237.398 129.961 237.398C130.852 237.398 131.496 238.02 131.496 238.875C131.496 239.719 130.852 240.34 129.961 240.34C129.117 240.34 128.473 239.719 128.473 238.875ZM134.918 249.809V247.805C134.918 244.57 136.898 242.461 140.062 242.461C143.145 242.461 144.738 244.371 144.797 246.258H142.723C142.594 245.52 142.02 244.348 140.098 244.348C138.082 244.348 137.039 245.73 137.039 247.887V249.82C137.039 251.965 138.199 253.324 140.098 253.324C141.914 253.324 142.594 252.504 142.816 251.555H144.879C144.809 253.395 143.32 255.199 140.062 255.199C136.887 255.199 134.918 253.125 134.918 249.809ZM151.57 255.199C149.18 255.199 147.539 253.699 147.539 251.414C147.539 249.258 149.039 247.793 151.875 247.793H155.098V246.574C155.098 245.004 154.102 244.289 152.52 244.289C150.961 244.289 150.305 244.887 150.059 245.742H148.008C148.195 243.656 149.836 242.473 152.59 242.473C155.133 242.473 157.23 243.562 157.23 246.586V255H155.191V253.371H155.098C154.5 254.355 153.387 255.199 151.57 255.199ZM152.156 253.406C153.82 253.406 155.098 252.281 155.098 250.793V249.41H152.051C150.387 249.41 149.707 250.242 149.707 251.344C149.707 252.75 150.879 253.406 152.156 253.406ZM161.414 255V238.16H163.535V255H161.414ZM173.262 255V238.16H175.383V244.91H175.488C175.734 244.055 176.742 242.473 179.309 242.473C181.688 242.473 183.445 243.844 183.445 246.609V255H181.324V247.289C181.324 245.355 180.258 244.348 178.594 244.348C176.484 244.348 175.383 246 175.383 248.133V255H173.262ZM197.555 242.672V255H195.457V252.949H195.34C194.988 253.957 193.828 255.199 191.672 255.199C189.199 255.199 187.453 254.086 187.453 251.215V242.672H189.574V250.641C189.574 252.68 190.793 253.324 192.258 253.324C194.062 253.324 195.434 252.012 195.434 250.43V242.672H197.555ZM201.727 255V242.672H203.824V244.629H203.941C204.223 243.762 205.008 242.473 207.281 242.473C209.145 242.473 210.316 243.469 210.703 244.793H210.797C211.301 243.586 212.473 242.473 214.559 242.473C217.078 242.473 218.613 243.855 218.613 246.328V255H216.492V246.938C216.492 245.367 215.602 244.336 213.938 244.336C212.402 244.336 211.219 245.508 211.219 247.195V255H209.121V247.02C209.121 245.414 208.125 244.336 206.508 244.336C204.961 244.336 203.848 245.484 203.848 247.172V255H201.727ZM226.055 255.199C223.664 255.199 222.023 253.699 222.023 251.414C222.023 249.258 223.523 247.793 226.359 247.793H229.582V246.574C229.582 245.004 228.586 244.289 227.004 244.289C225.445 244.289 224.789 244.887 224.543 245.742H222.492C222.68 243.656 224.32 242.473 227.074 242.473C229.617 242.473 231.715 243.562 231.715 246.586V255H229.676V253.371H229.582C228.984 254.355 227.871 255.199 226.055 255.199ZM226.641 253.406C228.305 253.406 229.582 252.281 229.582 250.793V249.41H226.535C224.871 249.41 224.191 250.242 224.191 251.344C224.191 252.75 225.363 253.406 226.641 253.406ZM235.828 255V242.672H237.926V244.91H238.043C238.348 243.938 239.203 242.473 241.781 242.473C244.266 242.473 245.965 243.82 245.965 246.586V255H243.844V247.266C243.844 245.332 242.848 244.348 241.172 244.348C239.004 244.348 237.949 246.012 237.949 248.133V255H235.828ZM255.586 255V238.16H257.707V255H255.586ZM262.254 255V242.672H264.375V255H262.254ZM261.809 238.875C261.809 238.02 262.453 237.398 263.297 237.398C264.188 237.398 264.832 238.02 264.832 238.875C264.832 239.719 264.188 240.34 263.297 240.34C262.453 240.34 261.809 239.719 261.809 238.875ZM268.266 246.211C268.266 243.586 270.457 242.461 272.859 242.461C275.52 242.461 277.277 243.844 277.277 245.93H275.309C275.238 245.062 274.441 244.148 272.789 244.148C271.348 244.148 270.316 244.816 270.316 245.988C270.316 247.453 271.98 247.652 273.375 247.898C275.684 248.309 277.594 248.953 277.594 251.344C277.594 253.805 275.625 255.199 272.672 255.199C269.93 255.199 268.043 253.969 268.043 251.754H270.117C270.281 252.844 271.043 253.523 272.766 253.523C274.711 253.523 275.508 252.656 275.508 251.602C275.508 250.23 274.137 249.984 272.426 249.645C270.129 249.176 268.266 248.637 268.266 246.211ZM281.754 242.707V239.613H283.852V242.707H286.641V244.453H283.852V251.508C283.852 252.949 284.344 253.324 285.844 253.324C286.148 253.324 286.617 253.301 286.816 253.277V255C286.641 255.035 285.773 255.105 285.305 255.105C282.375 255.105 281.742 253.98 281.742 251.543V244.453H279.855V242.707H281.754ZM294.785 255.199C291.469 255.199 289.512 253.102 289.512 249.762V247.91C289.512 244.535 291.668 242.461 294.621 242.461C297.609 242.461 299.742 244.582 299.742 247.91V249.387H291.621V250.008C291.621 251.918 292.723 253.383 294.773 253.383C296.215 253.383 297.188 252.691 297.398 251.93H299.578C299.391 253.266 297.902 255.199 294.785 255.199ZM291.621 247.852H297.633V247.652C297.633 245.613 296.438 244.277 294.633 244.277C292.828 244.277 291.621 245.613 291.621 247.652V247.852ZM303.258 255V242.672H305.355V244.91H305.473C305.777 243.938 306.633 242.473 309.211 242.473C311.695 242.473 313.395 243.82 313.395 246.586V255H311.273V247.266C311.273 245.332 310.277 244.348 308.602 244.348C306.434 244.348 305.379 246.012 305.379 248.133V255H303.258ZM322.184 255.199C318.867 255.199 316.91 253.102 316.91 249.762V247.91C316.91 244.535 319.066 242.461 322.02 242.461C325.008 242.461 327.141 244.582 327.141 247.91V249.387H319.02V250.008C319.02 251.918 320.121 253.383 322.172 253.383C323.613 253.383 324.586 252.691 324.797 251.93H326.977C326.789 253.266 325.301 255.199 322.184 255.199ZM319.02 247.852H325.031V247.652C325.031 245.613 323.836 244.277 322.031 244.277C320.227 244.277 319.02 245.613 319.02 247.652V247.852ZM330.844 255V242.672H332.965V244.57H333.07C333.375 243.75 334.266 242.484 336.445 242.484C336.715 242.484 336.973 242.508 337.219 242.543V244.5C337.02 244.453 336.598 244.43 336.223 244.43C334.055 244.43 332.977 245.73 332.977 247.395V255H330.844ZM339.422 246.211C339.422 243.586 341.613 242.461 344.016 242.461C346.676 242.461 348.434 243.844 348.434 245.93H346.465C346.395 245.062 345.598 244.148 343.945 244.148C342.504 244.148 341.473 244.816 341.473 245.988C341.473 247.453 343.137 247.652 344.531 247.898C346.84 248.309 348.75 248.953 348.75 251.344C348.75 253.805 346.781 255.199 343.828 255.199C341.086 255.199 339.199 253.969 339.199 251.754H341.273C341.438 252.844 342.199 253.523 343.922 253.523C345.867 253.523 346.664 252.656 346.664 251.602C346.664 250.23 345.293 249.984 343.582 249.645C341.285 249.176 339.422 248.637 339.422 246.211ZM351.738 253.547C351.738 252.539 352.488 251.836 353.414 251.836C354.387 251.836 355.125 252.539 355.125 253.547C355.125 254.508 354.387 255.211 353.414 255.211C352.488 255.211 351.738 254.508 351.738 253.547Z" fill="black"/>
<path d="M101.195 161.273C101.195 158.086 99.3906 155.508 96.2031 155.508H82.75V167.039H96.2031C99.3906 167.039 101.195 164.438 101.195 161.273ZM70.4688 145.523H98.5C107.148 145.406 113.57 152.672 113.5 161.273C113.57 169.828 107.148 177.141 98.5 177.023H70.4688V145.523ZM117.156 145.477H129.438V176.977H117.156V145.477ZM145.633 155.859C145.633 157.242 149.453 157.43 154.398 157.664C163.188 158.109 175.539 158.719 175.516 166.617C175.516 175.617 165.203 177.75 154.141 177.75C143.102 177.727 133.938 176.391 132.766 166.617H145.633C147.039 169.055 150.297 169.688 154.141 169.688C157.961 169.688 162.648 169.055 162.648 166.617C162.648 165.234 158.828 165.023 153.883 164.789C145.094 164.344 132.742 163.734 132.766 155.859C132.766 146.859 143.078 144.703 154.141 144.703C165.18 144.773 174.344 146.016 175.516 155.859H162.648C161.242 153.375 157.984 152.789 154.141 152.789C150.32 152.789 145.633 153.352 145.633 155.859ZM190.68 155.859C190.68 157.242 194.5 157.43 199.445 157.664C208.234 158.109 220.586 158.719 220.562 166.617C220.562 175.617 210.25 177.75 199.188 177.75C188.148 177.727 178.984 176.391 177.812 166.617H190.68C192.086 169.055 195.344 169.688 199.188 169.688C203.008 169.688 207.695 169.055 207.695 166.617C207.695 165.234 203.875 165.023 198.93 164.789C190.141 164.344 177.789 163.734 177.812 155.859C177.812 146.859 188.125 144.703 199.188 144.703C210.227 144.773 219.391 146.016 220.562 155.859H207.695C206.289 153.375 203.031 152.789 199.188 152.789C195.367 152.789 190.68 153.352 190.68 155.859ZM244.281 144.703C256.141 144.703 265.773 148.172 265.773 160.078V162.375C265.82 174.281 256.117 177.727 244.281 177.75C232.422 177.727 222.719 174.281 222.766 162.375V160.078C222.719 148.148 232.422 144.727 244.281 144.703ZM253.492 161.602V160.828C253.562 155.695 249.297 154.758 244.281 154.688C239.242 154.758 234.977 155.695 235.047 160.828V161.602C234.977 166.758 239.242 167.695 244.281 167.766C249.297 167.695 253.562 166.758 253.492 161.602ZM300.18 162.164V145.477H312.484V176.977H298.656L281.734 157.734V176.977H269.453V145.477H286.352L300.18 162.164ZM337.633 154.641L333.297 163.945H341.945L337.633 154.641ZM313.422 177.023L330.32 145.523H344.922L361.82 177.023H347.992L345.508 171.633H329.734L327.25 177.023H313.422ZM393.508 162.164V145.477H405.812V176.977H391.984L375.062 157.734V176.977H362.781V145.477H379.68L393.508 162.164ZM440.547 163.922H453.133C452.359 174.562 443.031 177.75 431.688 177.75C419.875 177.727 410.125 174.305 410.172 162.375V160.078C410.125 148.172 419.875 144.75 431.688 144.703C443.031 144.727 452.359 147.914 453.133 158.531H440.547C439.398 155.438 435.906 154.711 431.688 154.711C426.672 154.781 422.406 155.672 422.477 160.852V161.625C422.406 166.758 426.672 167.695 431.688 167.766C435.906 167.766 439.422 167.016 440.547 163.922ZM456.812 177.023V145.523H493.68V153.586H469.094V157.617H493.68V164.906H469.094V168.938H493.68V177.023H456.812ZM494.641 167.789H506.922V177H494.641V167.789Z" fill="black"/>
<path d="M78.2148 138H75.5664V131.66L70.2109 122.004H73.1875L76.8555 128.895H76.9727L80.6523 122.004H83.5703L78.2148 131.613V138ZM89.4062 125.391C92.6406 125.391 94.9023 127.512 94.9023 131.004V132.551C94.9023 136.172 92.6406 138.211 89.4062 138.211C86.125 138.211 83.8867 136.195 83.8867 132.551V131.016C83.8867 127.605 86.1602 125.391 89.4062 125.391ZM89.418 127.57C87.5664 127.57 86.5117 129.105 86.5117 131.121V132.48C86.5117 134.496 87.4961 136.031 89.418 136.031C91.3164 136.031 92.2891 134.508 92.2891 132.48V131.121C92.2891 129.105 91.2695 127.57 89.418 127.57ZM108.719 125.602V138H106.164V135.938H106.023C105.684 136.934 104.535 138.188 102.367 138.188C99.8945 138.188 98.1719 136.992 98.1719 134.074V125.602H100.773V133.359C100.773 135.316 101.934 135.879 103.246 135.879C104.852 135.879 106.117 134.73 106.117 133.184V125.602H108.719ZM112.809 138V125.602H115.398V127.535H115.539C115.809 126.703 116.711 125.414 118.785 125.414C119.137 125.414 119.418 125.449 119.664 125.496V127.898C119.441 127.828 118.984 127.805 118.551 127.805C116.465 127.805 115.445 129.023 115.445 130.699V138H112.809ZM127.738 138V125.602H130.293V127.617H130.422C130.703 126.715 131.535 125.414 133.797 125.414C135.672 125.414 136.832 126.41 137.219 127.734H137.324C137.781 126.574 138.977 125.414 141.086 125.414C143.617 125.414 145.117 126.867 145.117 129.316V138H142.527V130.137C142.527 128.566 141.66 127.688 140.172 127.688C138.777 127.688 137.699 128.719 137.699 130.348V138H135.168V130.207C135.168 128.59 134.207 127.688 132.777 127.688C131.371 127.688 130.34 128.684 130.34 130.324V138H127.738ZM159.461 125.602V138H156.906V135.938H156.766C156.426 136.934 155.277 138.188 153.109 138.188C150.637 138.188 148.914 136.992 148.914 134.074V125.602H151.516V133.359C151.516 135.316 152.676 135.879 153.988 135.879C155.594 135.879 156.859 134.73 156.859 133.184V125.602H159.461ZM162.859 129.223C162.859 126.516 165.133 125.391 167.652 125.391C170.371 125.391 172.234 126.738 172.234 128.965H169.891C169.82 128.168 169.082 127.348 167.582 127.348C166.258 127.348 165.355 127.957 165.355 128.977C165.355 130.336 167.113 130.512 168.484 130.746C170.793 131.145 172.574 131.906 172.574 134.238C172.574 136.746 170.594 138.211 167.453 138.211C164.512 138.211 162.625 136.852 162.625 134.637H165.156C165.297 135.609 166.012 136.254 167.582 136.254C169.328 136.254 170.043 135.492 170.043 134.555C170.043 133.289 168.625 133.102 166.961 132.773C164.699 132.316 162.859 131.648 162.859 129.223ZM176.078 138V125.602H178.668V138H176.078ZM175.656 121.887C175.656 120.926 176.371 120.27 177.355 120.27C178.387 120.27 179.102 120.926 179.102 121.887C179.102 122.836 178.387 123.492 177.355 123.492C176.371 123.492 175.656 122.836 175.656 121.887ZM182.277 132.633V130.898C182.277 127.559 184.34 125.391 187.621 125.391C190.785 125.391 192.496 127.336 192.555 129.516H190.094C189.988 128.719 189.402 127.641 187.68 127.641C185.863 127.641 184.891 128.941 184.891 130.957V132.621C184.891 134.695 185.934 135.973 187.691 135.973C189.344 135.973 189.988 135.199 190.164 134.203H192.625C192.555 136.371 190.949 138.211 187.621 138.211C184.316 138.211 182.277 136.078 182.277 132.633ZM201.438 138V125.602H204.027V138H201.438ZM201.016 121.887C201.016 120.926 201.73 120.27 202.715 120.27C203.746 120.27 204.461 120.926 204.461 121.887C204.461 122.836 203.746 123.492 202.715 123.492C201.73 123.492 201.016 122.836 201.016 121.887ZM207.695 129.223C207.695 126.516 209.969 125.391 212.488 125.391C215.207 125.391 217.07 126.738 217.07 128.965H214.727C214.656 128.168 213.918 127.348 212.418 127.348C211.094 127.348 210.191 127.957 210.191 128.977C210.191 130.336 211.949 130.512 213.32 130.746C215.629 131.145 217.41 131.906 217.41 134.238C217.41 136.746 215.43 138.211 212.289 138.211C209.348 138.211 207.461 136.852 207.461 134.637H209.992C210.133 135.609 210.848 136.254 212.418 136.254C214.164 136.254 214.879 135.492 214.879 134.555C214.879 133.289 213.461 133.102 211.797 132.773C209.535 132.316 207.695 131.648 207.695 129.223ZM236.395 125.602C235.867 127.617 232.188 137.742 232.176 137.789L231.906 138.504C230.875 141.27 229.504 142.348 227.102 142.348C226.645 142.348 226.012 142.301 225.684 142.23V140.18C225.871 140.215 226.34 140.25 226.633 140.25C228.016 140.25 228.719 139.734 229.023 138.457L229.129 138.082L224.711 125.602H227.594L230.547 135.551H230.652L233.641 125.602H236.395ZM243.883 125.391C247.117 125.391 249.379 127.512 249.379 131.004V132.551C249.379 136.172 247.117 138.211 243.883 138.211C240.602 138.211 238.363 136.195 238.363 132.551V131.016C238.363 127.605 240.637 125.391 243.883 125.391ZM243.895 127.57C242.043 127.57 240.988 129.105 240.988 131.121V132.48C240.988 134.496 241.973 136.031 243.895 136.031C245.793 136.031 246.766 134.508 246.766 132.48V131.121C246.766 129.105 245.746 127.57 243.895 127.57ZM263.195 125.602V138H260.641V135.938H260.5C260.16 136.934 259.012 138.188 256.844 138.188C254.371 138.188 252.648 136.992 252.648 134.074V125.602H255.25V133.359C255.25 135.316 256.41 135.879 257.723 135.879C259.328 135.879 260.594 134.73 260.594 133.184V125.602H263.195ZM267.285 138V125.602H269.875V127.535H270.016C270.285 126.703 271.188 125.414 273.262 125.414C273.613 125.414 273.895 125.449 274.141 125.496V127.898C273.918 127.828 273.461 127.805 273.027 127.805C270.941 127.805 269.922 129.023 269.922 130.699V138H267.285ZM276.203 129.223C276.203 126.516 278.477 125.391 280.996 125.391C283.715 125.391 285.578 126.738 285.578 128.965H283.234C283.164 128.168 282.426 127.348 280.926 127.348C279.602 127.348 278.699 127.957 278.699 128.977C278.699 130.336 280.457 130.512 281.828 130.746C284.137 131.145 285.918 131.906 285.918 134.238C285.918 136.746 283.938 138.211 280.797 138.211C277.855 138.211 275.969 136.852 275.969 134.637H278.5C278.641 135.609 279.355 136.254 280.926 136.254C282.672 136.254 283.387 135.492 283.387 134.555C283.387 133.289 281.969 133.102 280.305 132.773C278.043 132.316 276.203 131.648 276.203 129.223ZM288.719 136.371C288.719 135.234 289.539 134.473 290.57 134.473C291.637 134.473 292.457 135.246 292.457 136.371C292.457 137.473 291.637 138.223 290.57 138.223C289.551 138.223 288.719 137.473 288.719 136.371Z" fill="black" fill-opacity="0.5"/>
</svg>
