<svg width="1208" height="786" viewBox="0 0 1208 786" fill="none" xmlns="http://www.w3.org/2000/svg">
<rect width="1208" height="786" rx="20" fill="white" fill-opacity="0.5"/>
<rect x="2" y="2" width="1204" height="782" rx="18" stroke="black" stroke-opacity="0.2" stroke-width="4"/>
<rect x="781" y="210" width="255" height="45" rx="10" fill="#D9D9D9"/>
<rect x="52" y="185" width="255" height="45" rx="10" fill="#D9D9D9"/>
<path d="M100.829 217.8C99.1786 214.913 96.6015 212.663 93.5126 211.413C95.0487 210.265 96.1834 208.664 96.7559 206.837C97.3284 205.011 97.3098 203.051 96.7026 201.235C96.0954 199.419 94.9304 197.84 93.3727 196.721C91.815 195.602 89.9436 195 88.0235 195C86.1033 195 84.2319 195.602 82.6742 196.721C81.1165 197.84 79.9516 199.419 79.3444 201.235C78.7372 203.051 78.7185 205.011 79.291 206.837C79.8635 208.664 80.9982 210.265 82.5343 211.413C79.4454 212.663 76.8683 214.913 75.2179 217.8C75.1156 217.964 75.0474 218.146 75.0174 218.337C74.9874 218.528 74.9962 218.723 75.0432 218.91C75.0902 219.097 75.1746 219.273 75.2911 219.427C75.4077 219.581 75.5542 219.71 75.7219 219.807C75.8895 219.903 76.075 219.965 76.2672 219.989C76.4593 220.013 76.6543 219.998 76.8406 219.945C77.0268 219.892 77.2004 219.802 77.3512 219.681C77.5019 219.56 77.6267 219.41 77.7181 219.24C79.8993 215.482 83.7513 213.241 88.0235 213.241C92.2956 213.241 96.1476 215.483 98.3288 219.24C98.5269 219.557 98.841 219.785 99.2047 219.876C99.5685 219.967 99.9534 219.913 100.278 219.726C100.603 219.539 100.842 219.233 100.945 218.874C101.047 218.515 101.006 218.129 100.829 217.8ZM81.7639 204.122C81.7639 202.888 82.131 201.682 82.8188 200.656C83.5066 199.63 84.4843 198.83 85.628 198.358C86.7718 197.886 88.0304 197.762 89.2446 198.003C90.4589 198.244 91.5742 198.838 92.4496 199.71C93.325 200.583 93.9212 201.695 94.1627 202.905C94.4043 204.115 94.2803 205.37 93.8065 206.51C93.3328 207.65 92.5305 208.624 91.5011 209.31C90.4717 209.995 89.2615 210.361 88.0235 210.361C86.3639 210.359 84.7729 209.701 83.5994 208.532C82.4259 207.362 81.7658 205.776 81.7639 204.122Z" fill="#475569"/>
<path d="M812.75 223.297H793.25C792.927 223.297 792.617 223.42 792.388 223.64C792.16 223.86 792.031 224.158 792.031 224.469V237.75C792.031 238.268 792.245 238.765 792.626 239.131C793.007 239.497 793.524 239.703 794.062 239.703H811.938C812.476 239.703 812.993 239.497 813.374 239.131C813.755 238.765 813.969 238.268 813.969 237.75V224.469C813.969 224.158 813.84 223.86 813.612 223.64C813.383 223.42 813.073 223.297 812.75 223.297ZM809.617 225.641L803 231.473L796.383 225.641H809.617ZM794.469 237.359V227.133L802.176 233.927C802.401 234.125 802.695 234.235 803 234.235C803.305 234.235 803.599 234.125 803.824 233.927L811.531 227.133V237.359H794.469Z" fill="#475569"/>
<path d="M123.672 213.461V215H117.195V204.336H118.969V213.461H123.672ZM131.883 206.742V215H130.18V213.852H130.102C129.828 214.5 129.062 215.125 127.719 215.125C126.023 215.125 124.852 214.148 124.852 212.234V206.742H126.586V211.758C126.586 213.203 127.414 213.625 128.344 213.625C129.383 213.625 130.148 212.961 130.148 211.734V206.742H131.883ZM133.75 211.203V210.461C133.75 208.203 135.078 206.602 137.312 206.602C139.32 206.602 140.539 207.898 140.602 209.344H138.961C138.82 208.648 138.227 208.039 137.406 208.039C136.203 208.039 135.492 208.977 135.492 210.5V211.203C135.492 212.734 136.234 213.703 137.414 213.703C138.375 213.703 138.891 213.148 139.008 212.508H140.648C140.43 214.156 139.234 215.141 137.312 215.141C135.07 215.141 133.75 213.516 133.75 211.203ZM146.898 213.984C146.539 214.617 145.812 215.125 144.594 215.125C142.992 215.125 141.891 214.164 141.891 212.625C141.891 211.156 142.906 210.227 144.805 210.227H146.898V209.438C146.898 208.492 146.336 207.969 145.367 207.969C144.422 207.969 143.883 208.461 143.82 209.195H142.195C142.266 207.789 143.203 206.617 145.406 206.617C147.242 206.617 148.609 207.531 148.609 209.375V215H146.961V213.984H146.898ZM145.117 213.805C146.125 213.805 146.898 213.18 146.898 212.281V211.367H145.102C144.094 211.367 143.633 211.844 143.633 212.531C143.633 213.391 144.352 213.805 145.117 213.805ZM155.633 215H154.039V204.336H155.82L159.078 211.836H159.133L162.391 204.336H164.164V215H162.562V207.633H162.492L159.734 213.867H158.461L155.695 207.633H155.633V215ZM171.055 213.984C170.695 214.617 169.969 215.125 168.75 215.125C167.148 215.125 166.047 214.164 166.047 212.625C166.047 211.156 167.062 210.227 168.961 210.227H171.055V209.438C171.055 208.492 170.492 207.969 169.523 207.969C168.578 207.969 168.039 208.461 167.977 209.195H166.352C166.422 207.789 167.359 206.617 169.562 206.617C171.398 206.617 172.766 207.531 172.766 209.375V215H171.117V213.984H171.055ZM169.273 213.805C170.281 213.805 171.055 213.18 171.055 212.281V211.367H169.258C168.25 211.367 167.789 211.844 167.789 212.531C167.789 213.391 168.508 213.805 169.273 213.805ZM174.898 215V206.742H176.633V207.828H176.695C176.906 207.312 177.523 206.625 178.672 206.625C178.898 206.625 179.094 206.641 179.258 206.672V208.203C179.109 208.164 178.805 208.141 178.516 208.141C177.125 208.141 176.656 209 176.656 210.109V215H174.898ZM181.688 206.742V204.734H183.391V206.742H185V208.133H183.391V212.539C183.391 213.438 183.727 213.688 184.656 213.688C184.805 213.688 184.945 213.688 185.047 213.672V215C184.906 215.023 184.578 215.055 184.227 215.055C182.219 215.055 181.664 214.336 181.664 212.68V208.133H180.523V206.742H181.688ZM186.992 215V206.742H188.727V215H186.992ZM186.828 204.727C186.828 204.156 187.297 203.742 187.859 203.742C188.422 203.742 188.883 204.156 188.883 204.727C188.883 205.297 188.422 205.703 187.859 205.703C187.297 205.703 186.828 205.297 186.828 204.727ZM191.008 215V206.742H192.711V207.898H192.773C193.055 207.352 193.812 206.617 195.172 206.617C196.859 206.617 198.07 207.68 198.07 209.695V215H196.344V210.047C196.344 208.719 195.578 208.125 194.547 208.125C193.328 208.125 192.734 208.992 192.734 210.078V215H191.008ZM203.445 215.141C201.234 215.141 199.828 213.68 199.828 211.234V210.398C199.828 208.094 201.203 206.602 203.375 206.602C205.578 206.602 206.906 208.148 206.906 210.477V211.266H201.539V211.461C201.539 212.852 202.289 213.773 203.469 213.773C204.352 213.773 204.953 213.336 205.164 212.625H206.812C206.562 213.961 205.484 215.141 203.445 215.141ZM201.539 210.055H205.211V210.039C205.211 208.867 204.484 207.945 203.383 207.945C202.266 207.945 201.539 208.867 201.539 210.039V210.055ZM209.344 206.742V204.734H211.047V206.742H212.656V208.133H211.047V212.539C211.047 213.438 211.383 213.688 212.312 213.688C212.461 213.688 212.602 213.688 212.703 213.672V215C212.562 215.023 212.234 215.055 211.883 215.055C209.875 215.055 209.32 214.336 209.32 212.68V208.133H208.18V206.742H209.344Z" fill="#475569"/>
<path d="M831.391 238V226.773H832.805V238H831.391ZM842.312 229.781V238H840.914V236.633H840.836C840.602 237.305 839.828 238.133 838.391 238.133C836.742 238.133 835.578 237.391 835.578 235.477V229.781H836.992V235.094C836.992 236.453 837.805 236.883 838.781 236.883C839.984 236.883 840.898 236.008 840.898 234.953V229.781H842.312ZM844.695 234.539V233.203C844.695 231.047 846.016 229.641 848.125 229.641C850.18 229.641 851.242 230.914 851.281 232.172H849.898C849.812 231.68 849.43 230.898 848.148 230.898C846.805 230.898 846.109 231.82 846.109 233.258V234.547C846.109 235.977 846.883 236.883 848.148 236.883C849.359 236.883 849.812 236.336 849.961 235.703H851.336C851.289 236.93 850.297 238.133 848.125 238.133C846.008 238.133 844.695 236.75 844.695 234.539ZM855.797 238.133C854.203 238.133 853.109 237.133 853.109 235.609C853.109 234.172 854.109 233.195 856 233.195H858.148V232.383C858.148 231.336 857.484 230.859 856.43 230.859C855.391 230.859 854.953 231.258 854.789 231.828H853.422C853.547 230.438 854.641 229.648 856.477 229.648C858.172 229.648 859.57 230.375 859.57 232.391V238H858.211V236.914H858.148C857.75 237.57 857.008 238.133 855.797 238.133ZM856.188 236.938C857.297 236.938 858.148 236.188 858.148 235.195V234.273H856.117C855.008 234.273 854.555 234.828 854.555 235.562C854.555 236.5 855.336 236.938 856.188 236.938ZM862.133 237.031C862.133 236.359 862.633 235.891 863.25 235.891C863.898 235.891 864.391 236.359 864.391 237.031C864.391 237.672 863.898 238.141 863.25 238.141C862.633 238.141 862.133 237.672 862.133 237.031ZM867 238V229.781H868.398V231.086H868.477C868.664 230.508 869.188 229.648 870.703 229.648C871.945 229.648 872.727 230.312 872.984 231.195H873.047C873.383 230.391 874.164 229.648 875.555 229.648C877.234 229.648 878.258 230.57 878.258 232.219V238H876.844V232.625C876.844 231.578 876.25 230.891 875.141 230.891C874.117 230.891 873.328 231.672 873.328 232.797V238H871.93V232.68C871.93 231.609 871.266 230.891 870.188 230.891C869.156 230.891 868.414 231.656 868.414 232.781V238H867ZM883.219 238.133C881.625 238.133 880.531 237.133 880.531 235.609C880.531 234.172 881.531 233.195 883.422 233.195H885.57V232.383C885.57 231.336 884.906 230.859 883.852 230.859C882.812 230.859 882.375 231.258 882.211 231.828H880.844C880.969 230.438 882.062 229.648 883.898 229.648C885.594 229.648 886.992 230.375 886.992 232.391V238H885.633V236.914H885.57C885.172 237.57 884.43 238.133 883.219 238.133ZM883.609 236.938C884.719 236.938 885.57 236.188 885.57 235.195V234.273H883.539C882.43 234.273 881.977 234.828 881.977 235.562C881.977 236.5 882.758 236.938 883.609 236.938ZM889.859 238V229.781H891.273V231.047H891.344C891.547 230.5 892.141 229.656 893.594 229.656C893.773 229.656 893.945 229.672 894.109 229.695V231C893.977 230.969 893.695 230.953 893.445 230.953C892 230.953 891.281 231.82 891.281 232.93V238H889.859ZM896.961 229.805V227.742H898.359V229.805H900.219V230.969H898.359V235.672C898.359 236.633 898.688 236.883 899.688 236.883C899.891 236.883 900.203 236.867 900.336 236.852V238C900.219 238.023 899.641 238.07 899.328 238.07C897.375 238.07 896.953 237.32 896.953 235.695V230.969H895.695V229.805H896.961ZM902.727 238V229.781H904.141V238H902.727ZM902.43 227.25C902.43 226.68 902.859 226.266 903.422 226.266C904.016 226.266 904.445 226.68 904.445 227.25C904.445 227.812 904.016 228.227 903.422 228.227C902.859 228.227 902.43 227.812 902.43 227.25ZM907.125 238V229.781H908.523V231.273H908.602C908.805 230.625 909.375 229.648 911.094 229.648C912.75 229.648 913.883 230.547 913.883 232.391V238H912.469V232.844C912.469 231.555 911.805 230.898 910.688 230.898C909.242 230.898 908.539 232.008 908.539 233.422V238H907.125ZM919.742 238.133C917.531 238.133 916.227 236.734 916.227 234.508V233.273C916.227 231.023 917.664 229.641 919.633 229.641C921.625 229.641 923.047 231.055 923.047 233.273V234.258H917.633V234.672C917.633 235.945 918.367 236.922 919.734 236.922C920.695 236.922 921.344 236.461 921.484 235.953H922.938C922.812 236.844 921.82 238.133 919.742 238.133ZM917.633 233.234H921.641V233.102C921.641 231.742 920.844 230.852 919.641 230.852C918.438 230.852 917.633 231.742 917.633 233.102V233.234ZM925.852 229.805V227.742H927.25V229.805H929.109V230.969H927.25V235.672C927.25 236.633 927.578 236.883 928.578 236.883C928.781 236.883 929.094 236.867 929.227 236.852V238C929.109 238.023 928.531 238.07 928.219 238.07C926.266 238.07 925.844 237.32 925.844 235.695V230.969H924.586V229.805H925.852ZM939.984 236.961C938.875 236.961 938.289 236.406 938.18 235.875H938.102C937.969 236.383 937.305 236.961 936.383 236.961C935.078 236.961 934.336 235.93 934.336 234.398V233.672C934.336 232.188 935.094 231.148 936.453 231.148C937.352 231.148 937.859 231.703 938 232.148H938.062V231.258H939.195V235.07C939.195 235.688 939.609 236 940.141 236C940.906 236 941.602 235.18 941.602 233.344V233.07C941.602 230.797 939.945 228.773 937 228.773H936.938C934.188 228.773 932.086 230.695 932.086 233.82V234.18C932.086 237.5 934.289 239.102 936.891 239.102H936.961C938.133 239.102 938.922 238.953 939.477 238.711V239.727C939.047 239.93 938.195 240.102 936.945 240.102H936.875C933.617 240.102 930.969 238.133 930.969 234.227V233.773C930.969 230.109 933.516 227.766 936.938 227.766H937C940.688 227.766 942.688 230.312 942.688 233.031V233.43C942.688 235.57 941.547 236.961 939.984 236.961ZM935.516 234.242C935.516 235.445 936.039 235.922 936.773 235.922C937.508 235.922 938.031 235.461 938.031 234.305V233.68C938.031 232.648 937.469 232.109 936.758 232.109C936.062 232.109 935.516 232.625 935.516 233.758V234.242ZM948.023 238.133C945.812 238.133 944.508 236.734 944.508 234.508V233.273C944.508 231.023 945.945 229.641 947.914 229.641C949.906 229.641 951.328 231.055 951.328 233.273V234.258H945.914V234.672C945.914 235.945 946.648 236.922 948.016 236.922C948.977 236.922 949.625 236.461 949.766 235.953H951.219C951.094 236.844 950.102 238.133 948.023 238.133ZM945.914 233.234H949.922V233.102C949.922 231.742 949.125 230.852 947.922 230.852C946.719 230.852 945.914 231.742 945.914 233.102V233.234ZM957.523 238.125C956.391 238.125 955.547 237.641 955.164 236.781H955.094V240.727H953.68V229.773H955.039V231.078H955.109C955.445 230.195 956.391 229.656 957.57 229.656C959.5 229.656 960.711 231.016 960.711 233.188V234.586C960.711 236.773 959.484 238.125 957.523 238.125ZM957.234 236.898C958.531 236.898 959.289 235.961 959.289 234.328V233.469C959.289 231.82 958.531 230.883 957.195 230.883C955.898 230.883 955.094 231.789 955.094 233.266V234.68C955.094 235.992 955.969 236.898 957.234 236.898ZM963.305 238V229.781H964.719V238H963.305ZM963.008 227.25C963.008 226.68 963.438 226.266 964 226.266C964.594 226.266 965.023 226.68 965.023 227.25C965.023 227.812 964.594 228.227 964 228.227C963.438 228.227 963.008 227.812 963.008 227.25ZM968.164 229.805V227.742H969.562V229.805H971.422V230.969H969.562V235.672C969.562 236.633 969.891 236.883 970.891 236.883C971.094 236.883 971.406 236.867 971.539 236.852V238C971.422 238.023 970.844 238.07 970.531 238.07C968.578 238.07 968.156 237.32 968.156 235.695V230.969H966.898V229.805H968.164ZM976.852 238.133C974.641 238.133 973.336 236.734 973.336 234.508V233.273C973.336 231.023 974.773 229.641 976.742 229.641C978.734 229.641 980.156 231.055 980.156 233.273V234.258H974.742V234.672C974.742 235.945 975.477 236.922 976.844 236.922C977.805 236.922 978.453 236.461 978.594 235.953H980.047C979.922 236.844 978.93 238.133 976.852 238.133ZM974.742 233.234H978.75V233.102C978.75 231.742 977.953 230.852 976.75 230.852C975.547 230.852 974.742 231.742 974.742 233.102V233.234ZM982.102 234.539V233.203C982.102 231.047 983.422 229.641 985.531 229.641C987.586 229.641 988.648 230.914 988.688 232.172H987.305C987.219 231.68 986.836 230.898 985.555 230.898C984.211 230.898 983.516 231.82 983.516 233.258V234.547C983.516 235.977 984.289 236.883 985.555 236.883C986.766 236.883 987.219 236.336 987.367 235.703H988.742C988.695 236.93 987.703 238.133 985.531 238.133C983.414 238.133 982.102 236.75 982.102 234.539ZM991.008 238V226.773H992.422V231.273H992.492C992.656 230.703 993.328 229.648 995.039 229.648C996.625 229.648 997.797 230.562 997.797 232.406V238H996.383V232.859C996.383 231.57 995.672 230.898 994.562 230.898C993.156 230.898 992.422 232 992.422 233.422V238H991.008ZM1000.35 237.031C1000.35 236.359 1000.85 235.891 1001.47 235.891C1002.12 235.891 1002.61 236.359 1002.61 237.031C1002.61 237.672 1002.12 238.141 1001.47 238.141C1000.85 238.141 1000.35 237.672 1000.35 237.031ZM1008.34 238.133C1006.12 238.133 1004.82 236.734 1004.82 234.508V233.273C1004.82 231.023 1006.26 229.641 1008.23 229.641C1010.22 229.641 1011.64 231.055 1011.64 233.273V234.258H1006.23V234.672C1006.23 235.945 1006.96 236.922 1008.33 236.922C1009.29 236.922 1009.94 236.461 1010.08 235.953H1011.53C1011.41 236.844 1010.41 238.133 1008.34 238.133ZM1006.23 233.234H1010.23V233.102C1010.23 231.742 1009.44 230.852 1008.23 230.852C1007.03 230.852 1006.23 231.742 1006.23 233.102V233.234ZM1020.66 229.781V238H1019.26V236.633H1019.18C1018.95 237.305 1018.17 238.133 1016.73 238.133C1015.09 238.133 1013.92 237.391 1013.92 235.477V229.781H1015.34V235.094C1015.34 236.453 1016.15 236.883 1017.12 236.883C1018.33 236.883 1019.24 236.008 1019.24 234.953V229.781H1020.66Z" fill="#475569"/>
<path d="M800 190.842V193H791.416V179.67H800V181.828H794.033V185.246H799.639V187.268H794.033V190.842H800ZM802.256 193V182.639H804.756V184.123H804.893C805.176 183.371 806.055 182.473 807.607 182.473C809.199 182.473 810.156 183.186 810.508 184.25H810.615C810.957 183.371 812.031 182.473 813.77 182.473C815.908 182.473 817.148 183.85 817.148 185.92V193H814.58V186.633C814.58 185.314 813.867 184.621 812.773 184.621C811.631 184.621 810.938 185.402 810.938 186.73V193H808.457V186.73C808.457 185.236 807.686 184.621 806.641 184.621C805.635 184.621 804.814 185.275 804.814 186.711V193H802.256ZM825.342 191.74C824.932 192.502 824.053 193.156 822.529 193.156C820.508 193.156 819.121 191.965 819.121 190.012C819.121 188.156 820.41 186.965 822.812 186.965H825.342V186.027C825.342 184.992 824.717 184.416 823.633 184.416C822.578 184.416 821.973 184.973 821.904 185.803H819.502C819.58 184.074 820.693 182.473 823.682 182.473C826.064 182.473 827.881 183.586 827.881 185.998V193H825.449V191.74H825.342ZM823.359 191.281C824.463 191.281 825.342 190.607 825.342 189.602V188.508H823.369C822.236 188.508 821.68 189.055 821.68 189.846C821.68 190.812 822.5 191.281 823.359 191.281ZM830.439 193V182.639H833.008V193H830.439ZM830.264 180.07C830.264 179.27 830.928 178.713 831.719 178.713C832.52 178.713 833.174 179.27 833.174 180.07C833.174 180.871 832.52 181.418 831.719 181.418C830.928 181.418 830.264 180.871 830.264 180.07ZM835.742 193V178.967H838.32V193H835.742ZM846.426 193H843.76L848.232 179.67H851.328L855.771 193H852.969L851.924 189.572H847.48L846.426 193ZM849.775 182.219H849.658L848.027 187.609H851.396L849.775 182.219ZM860.771 182.502C862.178 182.502 863.262 183.176 863.721 184.152H863.818V178.967H866.396V193H863.867V191.398H863.76C863.271 192.463 862.188 193.127 860.771 193.127C858.252 193.127 856.807 191.252 856.807 188.244V187.375C856.807 184.416 858.301 182.502 860.771 182.502ZM861.592 184.562C860.352 184.562 859.443 185.52 859.443 187.463V188.176C859.443 190.119 860.352 191.076 861.611 191.076C862.969 191.076 863.838 190.07 863.838 188.186V187.463C863.838 185.646 862.959 184.562 861.592 184.562ZM872.549 182.502C873.955 182.502 875.039 183.176 875.498 184.152H875.596V178.967H878.174V193H875.645V191.398H875.537C875.049 192.463 873.965 193.127 872.549 193.127C870.029 193.127 868.584 191.252 868.584 188.244V187.375C868.584 184.416 870.078 182.502 872.549 182.502ZM873.369 184.562C872.129 184.562 871.221 185.52 871.221 187.463V188.176C871.221 190.119 872.129 191.076 873.389 191.076C874.746 191.076 875.615 190.07 875.615 188.186V187.463C875.615 185.646 874.736 184.562 873.369 184.562ZM880.771 193V182.639H883.34V184.064H883.447C883.682 183.4 884.453 182.482 885.869 182.482C886.221 182.482 886.484 182.512 886.689 182.551V184.777C886.484 184.719 886.074 184.689 885.674 184.689C883.984 184.689 883.398 185.705 883.398 187.092V193H880.771ZM892.529 193.186C889.688 193.186 887.832 191.408 887.832 188.234V187.287C887.832 184.25 889.697 182.453 892.422 182.453C895.244 182.453 896.992 184.377 896.992 187.355V188.371H890.352V188.654C890.352 190.227 891.24 191.223 892.549 191.223C893.574 191.223 894.297 190.715 894.512 189.875H896.895C896.65 191.535 895.303 193.186 892.529 193.186ZM890.352 186.74H894.502V186.721C894.502 185.383 893.691 184.367 892.441 184.367C891.182 184.367 890.352 185.393 890.352 186.721V186.74ZM898.76 185.715C898.76 183.41 900.732 182.453 902.91 182.453C905.381 182.453 906.875 183.693 906.875 185.617H904.6C904.531 184.963 904.111 184.24 902.861 184.24C901.855 184.24 901.211 184.709 901.211 185.471C901.211 186.496 902.705 186.672 903.887 186.887C905.791 187.229 907.188 187.883 907.188 189.797C907.188 191.926 905.518 193.186 902.773 193.186C900.107 193.186 898.555 191.936 898.555 190.09H901.045C901.152 190.852 901.816 191.379 902.92 191.379C904.131 191.379 904.697 190.803 904.697 190.129C904.697 189.123 903.457 188.977 902.129 188.713C900.264 188.322 898.76 187.629 898.76 185.715ZM908.857 185.715C908.857 183.41 910.83 182.453 913.008 182.453C915.479 182.453 916.973 183.693 916.973 185.617H914.697C914.629 184.963 914.209 184.24 912.959 184.24C911.953 184.24 911.309 184.709 911.309 185.471C911.309 186.496 912.803 186.672 913.984 186.887C915.889 187.229 917.285 187.883 917.285 189.797C917.285 191.926 915.615 193.186 912.871 193.186C910.205 193.186 908.652 191.936 908.652 190.09H911.143C911.25 190.852 911.914 191.379 913.018 191.379C914.229 191.379 914.795 190.803 914.795 190.129C914.795 189.123 913.555 188.977 912.227 188.713C910.361 188.322 908.857 187.629 908.857 185.715Z" fill="black" fill-opacity="0.49"/>
<path d="M84.6562 84H78.4844V77.2969L71.3438 62.6719H78.0469L81.5625 71.1719H81.7969L85.3281 62.6719H91.7969L84.6562 77.1094V84ZM98.8125 66.875C104.047 66.875 107.078 70.2344 107.078 75.0625V75.9688C107.078 81.2969 104.047 84.3281 98.8125 84.3281C93.5469 84.3281 90.5 81.2969 90.5 76V75.1094C90.5 70.2812 93.5469 66.875 98.8125 66.875ZM98.7969 71.2188C97 71.2188 96.5625 73.125 96.5625 74.9531V76.2188C96.5625 77.875 96.9375 79.9844 98.7969 79.9844C100.641 79.9844 101.016 77.9062 101.016 76.2188V74.9531C101.016 73.0938 100.594 71.2188 98.7969 71.2188ZM125.844 67.2031V84H120.078V81.2344H119.781C119.359 82.5156 117.859 84.2344 114.938 84.2344C111.594 84.2344 109.469 82.2344 109.469 78.1406V67.2031H115.422V76.625C115.422 78.9219 116.703 79.375 117.625 79.375C118.766 79.375 119.875 78.5312 119.875 76.5781V67.2031H125.844ZM129 84V67.2031H134.969V69.8281H135.266C135.5 68.6875 136.75 66.9688 138.922 66.9688C139.781 66.9688 140.297 67.0156 140.625 67.1406V72.1406C140.234 71.9688 139.406 71.8906 138.578 71.8906C136.141 71.8906 135.172 73.2344 135.172 75.4844V84H129ZM159.719 84.1562C157.375 84.1562 155.719 83.0469 155.031 81.3438H154.734V89.5781H148.75V67.2031H154.734V69.8438H155.016C155.703 68.1406 157.375 67.0469 159.719 67.0469C163.391 67.0469 165.75 69.7188 165.75 74.9531V76.2188C165.75 81.4219 163.406 84.1562 159.719 84.1562ZM157.172 79.6406C158.578 79.6406 159.562 78.4844 159.562 76.0781V75.125C159.562 72.75 158.594 71.5781 157.156 71.5781C155.766 71.5781 154.734 72.75 154.734 75.125V76.0781C154.734 78.4531 155.766 79.6406 157.172 79.6406ZM168.281 84V67.2031H174.25V69.8281H174.547C174.781 68.6875 176.031 66.9688 178.203 66.9688C179.062 66.9688 179.578 67.0156 179.906 67.1406V72.1406C179.516 71.9688 178.688 71.8906 177.859 71.8906C175.422 71.8906 174.453 73.2344 174.453 75.4844V84H168.281ZM189.344 66.875C194.578 66.875 197.609 70.2344 197.609 75.0625V75.9688C197.609 81.2969 194.578 84.3281 189.344 84.3281C184.078 84.3281 181.031 81.2969 181.031 76V75.1094C181.031 70.2812 184.078 66.875 189.344 66.875ZM189.328 71.2188C187.531 71.2188 187.094 73.125 187.094 74.9531V76.2188C187.094 77.875 187.469 79.9844 189.328 79.9844C191.172 79.9844 191.547 77.9062 191.547 76.2188V74.9531C191.547 73.0938 191.125 71.2188 189.328 71.2188ZM201.438 84V71.6406H198.844V67.2031H201.438V65.5469C201.438 61.9531 203.359 60.7188 207.812 60.7188C209.312 60.7188 210.016 60.8281 210.344 60.8438V64.75C210.156 64.7344 209.781 64.7031 209.156 64.7031C207.859 64.7031 207.172 65.0938 207.172 66.0625V67.2031H210.312V71.6406H207.344V84H201.438ZM212.984 84V67.2031H218.938V84H212.984ZM212.859 62.8906C212.859 61.2031 214.25 60.1562 215.969 60.1562C217.672 60.1562 219.062 61.2031 219.062 62.8906C219.062 64.6094 217.672 65.6562 215.969 65.6562C214.25 65.6562 212.859 64.6094 212.859 62.8906ZM222.438 84V61.5469H228.406V84H222.438ZM239.375 84.3281C234.5 84.3281 231.031 81.7031 231.031 76.1094V75C231.031 69.4688 234.719 66.875 239.141 66.875C243.953 66.875 247.172 69.9375 247.172 75.0156V76.7656H236.828V77.4375C236.828 79.1406 238.031 80.0469 239.344 80.0469C240.656 80.0469 241.719 79.4062 241.781 78.2969H247.109C247.016 80.8906 244.859 84.3281 239.375 84.3281ZM236.828 73.5938H241.5C241.5 72.0625 240.609 71 239.203 71C237.797 71 236.828 72.0625 236.828 73.5938Z" fill="black"/>
<line x1="790" y1="201" x2="1026" y2="201" stroke="black" stroke-opacity="0.51" stroke-width="2"/>
</svg>
