<svg width="556" height="536" viewBox="0 0 556 536" fill="none" xmlns="http://www.w3.org/2000/svg">
<rect width="556" height="536" rx="20" fill="black" fill-opacity="0.26"/>
<rect x="2" y="2" width="552" height="532" rx="18" stroke="white" stroke-opacity="0.2" stroke-width="4" stroke-dasharray="8 8"/>
<path d="M171.156 263L172.748 254.035H171.098L171.312 252.756H172.992L173.051 252.297C173.324 250.158 174.506 249.094 176.596 249.094C176.967 249.094 177.367 249.133 177.709 249.201L177.475 250.451C177.309 250.412 176.898 250.383 176.596 250.383C175.424 250.383 174.857 250.9 174.623 252.16L174.516 252.756H176.879L176.645 254.035H174.281L172.709 263H171.156ZM177.865 263L179.672 252.756H181.225L179.418 263H177.865ZM179.672 249.611C179.672 248.938 180.18 248.449 180.814 248.449C181.488 248.449 181.986 248.938 181.986 249.611C181.986 250.266 181.488 250.754 180.814 250.754C180.18 250.754 179.672 250.266 179.672 249.611ZM183.246 263L185.805 248.576H187.357L184.799 263H183.246ZM192.562 263.166C190.326 263.166 188.666 261.828 188.666 259.309C188.666 258.703 188.764 258.088 188.832 257.717L189.105 256.213C189.516 253.938 191.244 252.59 193.568 252.59C196.742 252.59 197.582 255.109 197.25 256.896L196.996 258.264H190.238C190.189 258.439 190.141 258.801 190.141 259.162C190.141 260.48 190.795 261.799 192.67 261.799C193.979 261.799 194.809 261.154 195.023 260.48H196.576C196.332 261.76 194.848 263.166 192.562 263.166ZM195.746 257.023L195.775 256.867C196.088 255.246 195.277 253.898 193.51 253.898C192.24 253.898 190.99 254.621 190.639 256.32L190.492 257.023H195.746ZM203.881 263L205.688 252.756H207.24L205.434 263H203.881ZM205.688 249.611C205.688 248.938 206.195 248.449 206.83 248.449C207.504 248.449 208.002 248.938 208.002 249.611C208.002 250.266 207.504 250.754 206.83 250.754C206.195 250.754 205.688 250.266 205.688 249.611ZM210.102 255.529C210.102 253.742 211.4 252.57 213.725 252.57C216.156 252.57 217.377 254.084 217.377 255.363V255.539H215.922V255.471C215.922 254.768 215.189 253.811 213.695 253.811C212.387 253.811 211.635 254.504 211.635 255.334C211.635 256.369 212.66 256.701 213.803 257.082C215.326 257.58 216.684 258.176 216.684 260.031C216.684 262.043 215.209 263.186 212.807 263.186C210.414 263.186 208.842 261.76 208.842 260.217V260.148H210.326C210.326 260.197 210.336 260.266 210.346 260.314C210.512 261.086 211.43 261.857 212.914 261.857C214.379 261.857 215.16 261.164 215.16 260.158C215.16 259.055 214.154 258.732 213.021 258.381C211.947 258.039 210.102 257.424 210.102 255.529ZM228.842 263.166C227.133 263.166 226 261.916 225.766 260.939H225.648L225.287 263H223.744L226.312 248.576H227.865L226.82 254.357H226.947C227.309 253.596 228.139 252.59 229.887 252.59C232.025 252.59 233.49 254.025 233.49 256.408C233.49 256.76 233.48 257.189 233.412 257.58L233.061 259.553C232.709 261.516 231.303 263.166 228.842 263.166ZM226.156 258.82C226.156 260.842 227.592 261.76 228.793 261.76C230.414 261.76 231.42 260.471 231.684 259.016L231.957 257.473C231.996 257.229 231.996 256.887 231.996 256.613C231.996 254.895 231.02 253.889 229.418 253.889C227.797 253.889 226.723 255.129 226.439 256.867L226.205 258.361C226.156 258.605 226.156 258.801 226.156 258.82ZM239.457 263.166C237.221 263.166 235.561 261.828 235.561 259.309C235.561 258.703 235.658 258.088 235.727 257.717L236 256.213C236.41 253.938 238.139 252.59 240.463 252.59C243.637 252.59 244.477 255.109 244.145 256.896L243.891 258.264H237.133C237.084 258.439 237.035 258.801 237.035 259.162C237.035 260.48 237.689 261.799 239.564 261.799C240.873 261.799 241.703 261.154 241.918 260.48H243.471C243.227 261.76 241.742 263.166 239.457 263.166ZM242.641 257.023L242.67 256.867C242.982 255.246 242.172 253.898 240.404 253.898C239.135 253.898 237.885 254.621 237.533 256.32L237.387 257.023H242.641ZM246.205 263L248.012 252.756H249.564L247.758 263H246.205ZM248.012 249.611C248.012 248.938 248.52 248.449 249.154 248.449C249.828 248.449 250.326 248.938 250.326 249.611C250.326 250.266 249.828 250.754 249.154 250.754C248.52 250.754 248.012 250.266 248.012 249.611ZM251.439 263L253.246 252.756H254.77L254.457 254.455H254.574C255.141 253.264 256.176 252.59 257.641 252.59C259.887 252.59 260.785 254.162 260.785 255.803C260.785 256.35 260.688 256.926 260.59 257.473L259.613 263H258.061L259.057 257.375C259.105 257.082 259.193 256.564 259.193 256.096C259.193 254.943 258.686 253.898 257.172 253.898C255.355 253.898 254.33 255.393 254.037 257.072L252.992 263H251.439ZM267.934 252.59C269.643 252.59 270.717 253.566 271.029 254.719H271.156L271.508 252.756H273.031L271.234 262.922C270.766 265.568 269.271 266.867 266.586 266.867C264.193 266.867 262.699 265.441 262.699 263.957V263.85H264.223V263.938C264.223 264.699 265.199 265.539 266.674 265.539C268.588 265.539 269.467 264.484 269.799 262.648L270.072 261.135H269.945C269.574 262.062 268.598 262.834 267.045 262.834C265.16 262.834 263.324 261.379 263.324 258.928C263.324 258.557 263.383 257.912 263.461 257.531L263.695 256.33C264.203 253.723 266.029 252.59 267.934 252.59ZM270.697 256.76C270.697 254.953 269.555 253.898 268.012 253.898C266.488 253.898 265.463 255.041 265.131 256.799L264.975 257.619C264.926 257.893 264.848 258.449 264.848 258.703C264.848 260.598 265.912 261.545 267.533 261.545C268.979 261.545 270.131 260.383 270.434 258.645L270.6 257.697C270.697 257.121 270.697 256.838 270.697 256.76ZM284.32 263.166C282.543 263.166 281.498 261.799 281.332 260.939H281.205L280.238 266.584H278.686L281.107 252.756H282.631L282.338 254.357H282.465C282.768 253.635 283.578 252.59 285.375 252.59C287.514 252.59 289.037 254.025 289.037 256.408C289.037 256.76 289.037 257.189 288.959 257.58L288.598 259.553C288.285 261.525 286.791 263.166 284.32 263.166ZM281.645 258.82C281.645 260.842 283.08 261.76 284.271 261.76C285.912 261.76 286.957 260.471 287.221 259.016L287.494 257.473C287.533 257.229 287.543 256.887 287.543 256.613C287.543 254.895 286.508 253.889 284.896 253.889C283.275 253.889 282.211 255.129 281.928 256.867L281.684 258.361C281.645 258.605 281.645 258.801 281.645 258.82ZM290.932 263L292.738 252.756H294.213L293.9 254.475H294.018C294.398 253.518 295.443 252.59 296.986 252.59C297.221 252.59 297.582 252.619 297.768 252.648L297.445 254.113C297.24 254.045 296.869 254.025 296.645 254.025C294.789 254.025 293.822 255.441 293.52 257.121L292.484 263H290.932ZM300.395 256.701L300.18 257.902C300.121 258.225 300.072 258.527 300.072 258.996C300.072 260.676 301.088 261.818 302.787 261.818C304.311 261.818 305.307 260.773 305.629 258.918L305.854 257.619C305.902 257.316 305.902 256.828 305.902 256.701C305.902 255.09 304.877 253.938 303.217 253.938C301.83 253.938 300.727 254.787 300.395 256.701ZM298.676 257.785L298.91 256.408C299.33 254.006 301.068 252.59 303.266 252.59C305.756 252.59 307.455 254.162 307.455 256.701C307.455 256.994 307.416 257.482 307.338 257.922L307.084 259.309C306.645 261.691 305.189 263.166 302.592 263.166C300.316 263.166 298.559 261.701 298.559 259.25C298.559 258.762 298.588 258.254 298.676 257.785ZM309.574 259.221C309.574 258.811 309.623 258.264 309.711 257.736L309.965 256.281C310.385 253.869 312.035 252.59 314.32 252.59C316.781 252.59 318.158 254.113 318.158 255.793V255.891H316.645C316.645 255.861 316.645 255.822 316.645 255.793C316.645 254.953 315.883 253.898 314.32 253.898C312.875 253.898 311.752 254.885 311.43 256.691L311.225 257.844C311.146 258.264 311.117 258.566 311.117 258.889C311.117 260.705 311.986 261.799 313.686 261.799C314.955 261.799 315.775 261.184 315.961 260.461H317.523C317.23 262.102 315.658 263.166 313.617 263.166C311.176 263.166 309.574 261.623 309.574 259.221ZM323.812 263.166C321.576 263.166 319.916 261.828 319.916 259.309C319.916 258.703 320.014 258.088 320.082 257.717L320.355 256.213C320.766 253.938 322.494 252.59 324.818 252.59C327.992 252.59 328.832 255.109 328.5 256.896L328.246 258.264H321.488C321.439 258.439 321.391 258.801 321.391 259.162C321.391 260.48 322.045 261.799 323.92 261.799C325.229 261.799 326.059 261.154 326.273 260.48H327.826C327.582 261.76 326.098 263.166 323.812 263.166ZM326.996 257.023L327.025 256.867C327.338 255.246 326.527 253.898 324.76 253.898C323.49 253.898 322.24 254.621 321.889 256.32L321.742 257.023H326.996ZM331.391 255.529C331.391 253.742 332.689 252.57 335.014 252.57C337.445 252.57 338.666 254.084 338.666 255.363V255.539H337.211V255.471C337.211 254.768 336.479 253.811 334.984 253.811C333.676 253.811 332.924 254.504 332.924 255.334C332.924 256.369 333.949 256.701 335.092 257.082C336.615 257.58 337.973 258.176 337.973 260.031C337.973 262.043 336.498 263.186 334.096 263.186C331.703 263.186 330.131 261.76 330.131 260.217V260.148H331.615C331.615 260.197 331.625 260.266 331.635 260.314C331.801 261.086 332.719 261.857 334.203 261.857C335.668 261.857 336.449 261.164 336.449 260.158C336.449 259.055 335.443 258.732 334.311 258.381C333.236 258.039 331.391 257.424 331.391 255.529ZM341.254 255.529C341.254 253.742 342.553 252.57 344.877 252.57C347.309 252.57 348.529 254.084 348.529 255.363V255.539H347.074V255.471C347.074 254.768 346.342 253.811 344.848 253.811C343.539 253.811 342.787 254.504 342.787 255.334C342.787 256.369 343.812 256.701 344.955 257.082C346.479 257.58 347.836 258.176 347.836 260.031C347.836 262.043 346.361 263.186 343.959 263.186C341.566 263.186 339.994 261.76 339.994 260.217V260.148H341.479C341.479 260.197 341.488 260.266 341.498 260.314C341.664 261.086 342.582 261.857 344.066 261.857C345.531 261.857 346.312 261.164 346.312 260.158C346.312 259.055 345.307 258.732 344.174 258.381C343.1 258.039 341.254 257.424 341.254 255.529ZM354.398 263.166C352.162 263.166 350.502 261.828 350.502 259.309C350.502 258.703 350.6 258.088 350.668 257.717L350.941 256.213C351.352 253.938 353.08 252.59 355.404 252.59C358.578 252.59 359.418 255.109 359.086 256.896L358.832 258.264H352.074C352.025 258.439 351.977 258.801 351.977 259.162C351.977 260.48 352.631 261.799 354.506 261.799C355.814 261.799 356.645 261.154 356.859 260.48H358.412C358.168 261.76 356.684 263.166 354.398 263.166ZM357.582 257.023L357.611 256.867C357.924 255.246 357.113 253.898 355.346 253.898C354.076 253.898 352.826 254.621 352.475 256.32L352.328 257.023H357.582ZM365.922 252.59C367.719 252.59 368.793 253.85 368.939 254.719H369.066L370.141 248.576H371.703L369.145 263H367.631L367.934 261.271H367.807C367.562 262.014 366.625 263.146 364.877 263.146C362.738 263.146 361.176 261.623 361.176 259.25C361.176 258.889 361.195 258.459 361.273 258.078L361.654 256.125C362.035 254.162 363.461 252.59 365.922 252.59ZM368.656 256.828C368.656 254.807 367.24 253.908 365.98 253.908C364.35 253.908 363.402 255.119 363.09 256.662L362.787 258.176C362.758 258.332 362.729 258.693 362.729 259.035C362.729 260.754 363.744 261.779 365.346 261.779C366.977 261.779 368.041 260.529 368.344 258.791L368.607 257.287C368.646 257.043 368.656 256.896 368.656 256.828ZM372.465 261.867C372.465 261.096 373.051 260.529 373.764 260.529C374.535 260.529 375.111 261.096 375.111 261.867C375.111 262.6 374.535 263.166 373.764 263.166C373.051 263.166 372.465 262.6 372.465 261.867ZM377.816 261.867C377.816 261.096 378.402 260.529 379.115 260.529C379.887 260.529 380.463 261.096 380.463 261.867C380.463 262.6 379.887 263.166 379.115 263.166C378.402 263.166 377.816 262.6 377.816 261.867ZM383.168 261.867C383.168 261.096 383.754 260.529 384.467 260.529C385.238 260.529 385.814 261.096 385.814 261.867C385.814 262.6 385.238 263.166 384.467 263.166C383.754 263.166 383.168 262.6 383.168 261.867Z" fill="white" fill-opacity="0.5"/>
<rect x="156" y="280" width="243" height="6" rx="3" fill="#EEEEEE"/>
<rect x="156" y="280" width="182" height="6" rx="3" fill="#0095FF"/>
</svg>
