<svg width="620" height="700" viewBox="0 0 620 700" fill="none" xmlns="http://www.w3.org/2000/svg">
<rect width="620" height="700" rx="20" fill="white" fill-opacity="0.5"/>
<rect x="2" y="2" width="616" height="696" rx="18" stroke="black" stroke-opacity="0.2" stroke-width="4"/>
<rect x="196" y="447" width="227.906" height="38" rx="10" fill="#0095FF"/>
<path d="M291.318 464.133H287.93C287.812 463.117 287.041 462.277 285.703 462.277C284.111 462.277 283.242 463.459 283.242 465.549V467.053C283.242 468.898 283.867 470.393 285.791 470.393C287.305 470.393 288.037 469.465 288.037 468.459V468.01H285.928V465.607H291.328V468.176C291.328 470.783 289.678 473.234 285.713 473.234C281.494 473.234 279.707 470.48 279.707 467.072V465.51C279.707 461.965 281.826 459.436 285.732 459.436C289.424 459.436 291.27 461.74 291.318 464.133ZM298.418 473.195C295.41 473.195 293.34 471.545 293.34 468.195V467.316C293.34 463.967 295.576 462.346 298.271 462.346C301.172 462.346 303.154 464.221 303.154 467.316V468.449H296.641V468.918C296.641 470.051 297.422 470.725 298.398 470.725C299.287 470.725 299.98 470.295 300.029 469.641H303.105C303.047 471.115 301.729 473.195 298.418 473.195ZM296.641 466.604H299.922V466.564C299.922 465.461 299.287 464.729 298.301 464.729C297.314 464.729 296.641 465.461 296.641 466.564V466.604ZM306.318 462.727V460.148H309.58V462.727H311.865V465.236H309.58V469.357C309.58 470.217 310.049 470.529 310.938 470.529C311.338 470.529 311.699 470.51 311.904 470.49V472.893C311.65 472.941 310.928 473.02 310.127 473.02C307.412 473.02 306.23 472.219 306.23 470.012V465.236H304.639V462.727H306.318ZM318.516 473V462.541H321.904V473H318.516ZM318.232 459.592C318.232 458.596 319.004 457.951 320.205 457.951C321.396 457.951 322.188 458.605 322.188 459.592C322.188 460.578 321.406 461.223 320.205 461.223C319.014 461.223 318.232 460.578 318.232 459.592ZM324.688 473V462.541H327.969V464.328H328.135C328.389 463.527 329.268 462.385 331.191 462.385C333.281 462.385 334.619 463.625 334.619 466.135V473H331.24V467.014C331.24 465.578 330.449 465.178 329.727 465.178C328.789 465.178 328.076 465.9 328.076 467.229V473H324.688ZM337.002 471.555C337.002 470.539 337.773 469.885 339.033 469.885C340.293 469.885 341.074 470.539 341.074 471.555C341.074 472.551 340.303 473.215 339.033 473.215C337.783 473.215 337.002 472.551 337.002 471.555ZM337.197 459.67H340.889L340.488 468.674H337.578L337.197 459.67Z" fill="white"/>
<rect x="116" y="258" width="389.812" height="32" rx="5" fill="black" fill-opacity="0.2"/>
<rect x="116" y="311" width="389.812" height="33" rx="5" fill="black" fill-opacity="0.2"/>
<rect x="115" y="365" width="389.812" height="33" rx="5" fill="black" fill-opacity="0.2"/>
<path d="M127.25 279L128.695 270.805H129.914L129.664 272.164H129.758C130.211 271.211 131.039 270.672 132.211 270.672C134.008 270.672 134.727 271.93 134.727 273.242C134.727 273.68 134.648 274.141 134.57 274.578L133.789 279H132.547L133.344 274.5C133.383 274.266 133.453 273.852 133.453 273.477C133.453 272.555 133.047 271.719 131.836 271.719C130.383 271.719 129.562 272.914 129.328 274.258L128.492 279H127.25ZM138.977 279.133C137.625 279.133 136.5 278.289 136.5 276.852C136.5 276.742 136.5 276.617 136.516 276.477C136.664 275.148 137.703 274.195 139.828 274.195H142.078L142.156 273.695C142.172 273.609 142.188 273.445 142.188 273.305C142.188 272.57 141.758 271.734 140.383 271.734C139.336 271.734 138.766 272.203 138.578 272.75H137.367C137.602 271.523 138.75 270.672 140.484 270.672C142.414 270.672 143.367 271.75 143.367 273.195C143.367 273.641 143.289 274.117 143.211 274.539L142.422 279H141.219L141.414 277.883H141.328C141.031 278.469 140.219 279.133 138.977 279.133ZM137.75 276.742C137.75 277.492 138.289 278.078 139.281 278.078C140.453 278.078 141.484 277.297 141.68 276.219L141.859 275.211H139.719C138.352 275.211 137.75 275.945 137.75 276.742ZM145.203 279L146.648 270.805H147.859L147.617 272.164H147.711C148.031 271.375 148.766 270.672 149.992 270.672C151.211 270.672 152 271.297 152.281 272.203H152.367C152.664 271.547 153.375 270.672 154.812 270.672C156.5 270.672 157.195 271.844 157.195 273.156C157.195 273.594 157.109 274.102 157.039 274.516L156.25 279H155.008L155.812 274.43C155.852 274.195 155.906 273.82 155.906 273.461C155.906 272.477 155.547 271.719 154.484 271.719C153.289 271.719 152.555 272.742 152.297 274.188L151.438 279H150.195L151.008 274.43C151.047 274.195 151.094 273.812 151.094 273.445C151.094 272.531 150.773 271.719 149.617 271.719C148.25 271.719 147.531 272.844 147.297 274.188L146.445 279H145.203ZM162.289 279.133C160.5 279.133 159.172 278.062 159.172 276.047C159.172 275.562 159.25 275.07 159.305 274.773L159.523 273.57C159.852 271.75 161.234 270.672 163.094 270.672C165.633 270.672 166.305 272.688 166.039 274.117L165.836 275.211H160.43C160.391 275.352 160.352 275.641 160.352 275.93C160.352 276.984 160.875 278.039 162.375 278.039C163.422 278.039 164.086 277.523 164.258 276.984H165.5C165.305 278.008 164.117 279.133 162.289 279.133ZM164.836 274.219L164.859 274.094C165.109 272.797 164.461 271.719 163.047 271.719C162.031 271.719 161.031 272.297 160.75 273.656L160.633 274.219H164.836Z" fill="white" fill-opacity="0.5"/>
<path d="M127.367 332L129.414 320.461H130.656L128.609 332H127.367ZM131.688 332L133.133 323.805H134.375L132.93 332H131.688ZM133.133 321.289C133.133 320.75 133.539 320.359 134.047 320.359C134.586 320.359 134.984 320.75 134.984 321.289C134.984 321.812 134.586 322.203 134.047 322.203C133.539 322.203 133.133 321.812 133.133 321.289ZM136.039 328.977C136.039 328.648 136.078 328.211 136.148 327.789L136.352 326.625C136.688 324.695 138.008 323.672 139.836 323.672C141.805 323.672 142.906 324.891 142.906 326.234V326.312H141.695C141.695 326.289 141.695 326.258 141.695 326.234C141.695 325.562 141.086 324.719 139.836 324.719C138.68 324.719 137.781 325.508 137.523 326.953L137.359 327.875C137.297 328.211 137.273 328.453 137.273 328.711C137.273 330.164 137.969 331.039 139.328 331.039C140.344 331.039 141 330.547 141.148 329.969H142.398C142.164 331.281 140.906 332.133 139.273 332.133C137.32 332.133 136.039 330.898 136.039 328.977ZM147.43 332.133C145.641 332.133 144.312 331.062 144.312 329.047C144.312 328.562 144.391 328.07 144.445 327.773L144.664 326.57C144.992 324.75 146.375 323.672 148.234 323.672C150.773 323.672 151.445 325.688 151.18 327.117L150.977 328.211H145.57C145.531 328.352 145.492 328.641 145.492 328.93C145.492 329.984 146.016 331.039 147.516 331.039C148.562 331.039 149.227 330.523 149.398 329.984H150.641C150.445 331.008 149.258 332.133 147.43 332.133ZM149.977 327.219L150 327.094C150.25 325.797 149.602 324.719 148.188 324.719C147.172 324.719 146.172 325.297 145.891 326.656L145.773 327.219H149.977ZM152.703 332L154.148 323.805H155.367L155.117 325.164H155.211C155.664 324.211 156.492 323.672 157.664 323.672C159.461 323.672 160.18 324.93 160.18 326.242C160.18 326.68 160.102 327.141 160.023 327.578L159.242 332H158L158.797 327.5C158.836 327.266 158.906 326.852 158.906 326.477C158.906 325.555 158.5 324.719 157.289 324.719C155.836 324.719 155.016 325.914 154.781 327.258L153.945 332H152.703ZM162.805 326.023C162.805 324.594 163.844 323.656 165.703 323.656C167.648 323.656 168.625 324.867 168.625 325.891V326.031H167.461V325.977C167.461 325.414 166.875 324.648 165.68 324.648C164.633 324.648 164.031 325.203 164.031 325.867C164.031 326.695 164.852 326.961 165.766 327.266C166.984 327.664 168.07 328.141 168.07 329.625C168.07 331.234 166.891 332.148 164.969 332.148C163.055 332.148 161.797 331.008 161.797 329.773V329.719H162.984C162.984 329.758 162.992 329.812 163 329.852C163.133 330.469 163.867 331.086 165.055 331.086C166.227 331.086 166.852 330.531 166.852 329.727C166.852 328.844 166.047 328.586 165.141 328.305C164.281 328.031 162.805 327.539 162.805 326.023ZM173.32 332.133C171.531 332.133 170.203 331.062 170.203 329.047C170.203 328.562 170.281 328.07 170.336 327.773L170.555 326.57C170.883 324.75 172.266 323.672 174.125 323.672C176.664 323.672 177.336 325.688 177.07 327.117L176.867 328.211H171.461C171.422 328.352 171.383 328.641 171.383 328.93C171.383 329.984 171.906 331.039 173.406 331.039C174.453 331.039 175.117 330.523 175.289 329.984H176.531C176.336 331.008 175.148 332.133 173.32 332.133ZM175.867 327.219L175.891 327.094C176.141 325.797 175.492 324.719 174.078 324.719C173.062 324.719 172.062 325.297 171.781 326.656L171.664 327.219H175.867Z" fill="white" fill-opacity="0.5"/>
<path d="M130.945 386.133C129.523 386.133 128.688 385.039 128.555 384.352H128.453L127.68 388.867H126.438L128.375 377.805H129.594L129.359 379.086H129.461C129.703 378.508 130.352 377.672 131.789 377.672C133.5 377.672 134.719 378.82 134.719 380.727C134.719 381.008 134.719 381.352 134.656 381.664L134.367 383.242C134.117 384.82 132.922 386.133 130.945 386.133ZM128.805 382.656C128.805 384.273 129.953 385.008 130.906 385.008C132.219 385.008 133.055 383.977 133.266 382.812L133.484 381.578C133.516 381.383 133.523 381.109 133.523 380.891C133.523 379.516 132.695 378.711 131.406 378.711C130.109 378.711 129.258 379.703 129.031 381.094L128.836 382.289C128.805 382.484 128.805 382.641 128.805 382.656ZM138.648 386.133C137.297 386.133 136.172 385.289 136.172 383.852C136.172 383.742 136.172 383.617 136.188 383.477C136.336 382.148 137.375 381.195 139.5 381.195H141.75L141.828 380.695C141.844 380.609 141.859 380.445 141.859 380.305C141.859 379.57 141.43 378.734 140.055 378.734C139.008 378.734 138.438 379.203 138.25 379.75H137.039C137.273 378.523 138.422 377.672 140.156 377.672C142.086 377.672 143.039 378.75 143.039 380.195C143.039 380.641 142.961 381.117 142.883 381.539L142.094 386H140.891L141.086 384.883H141C140.703 385.469 139.891 386.133 138.648 386.133ZM137.422 383.742C137.422 384.492 137.961 385.078 138.953 385.078C140.125 385.078 141.156 384.297 141.352 383.219L141.531 382.211H139.391C138.023 382.211 137.422 382.945 137.422 383.742ZM145.664 380.023C145.664 378.594 146.703 377.656 148.562 377.656C150.508 377.656 151.484 378.867 151.484 379.891V380.031H150.32V379.977C150.32 379.414 149.734 378.648 148.539 378.648C147.492 378.648 146.891 379.203 146.891 379.867C146.891 380.695 147.711 380.961 148.625 381.266C149.844 381.664 150.93 382.141 150.93 383.625C150.93 385.234 149.75 386.148 147.828 386.148C145.914 386.148 144.656 385.008 144.656 383.773V383.719H145.844C145.844 383.758 145.852 383.812 145.859 383.852C145.992 384.469 146.727 385.086 147.914 385.086C149.086 385.086 149.711 384.531 149.711 383.727C149.711 382.844 148.906 382.586 148 382.305C147.141 382.031 145.664 381.539 145.664 380.023ZM153.555 380.023C153.555 378.594 154.594 377.656 156.453 377.656C158.398 377.656 159.375 378.867 159.375 379.891V380.031H158.211V379.977C158.211 379.414 157.625 378.648 156.43 378.648C155.383 378.648 154.781 379.203 154.781 379.867C154.781 380.695 155.602 380.961 156.516 381.266C157.734 381.664 158.82 382.141 158.82 383.625C158.82 385.234 157.641 386.148 155.719 386.148C153.805 386.148 152.547 385.008 152.547 383.773V383.719H153.734C153.734 383.758 153.742 383.812 153.75 383.852C153.883 384.469 154.617 385.086 155.805 385.086C156.977 385.086 157.602 384.531 157.602 383.727C157.602 382.844 156.797 382.586 155.891 382.305C155.031 382.031 153.555 381.539 153.555 380.023ZM171.602 377.805L167.953 386H166.641L166.047 379.578H165.992L163.398 386H162.016L161.062 377.805H162.336L162.898 384.578H162.969L165.734 377.805H166.844L167.469 384.578H167.539L170.328 377.805H171.602ZM173.711 380.961L173.539 381.922C173.492 382.18 173.453 382.422 173.453 382.797C173.453 384.141 174.266 385.055 175.625 385.055C176.844 385.055 177.641 384.219 177.898 382.734L178.078 381.695C178.117 381.453 178.117 381.062 178.117 380.961C178.117 379.672 177.297 378.75 175.969 378.75C174.859 378.75 173.977 379.43 173.711 380.961ZM172.336 381.828L172.523 380.727C172.859 378.805 174.25 377.672 176.008 377.672C178 377.672 179.359 378.93 179.359 380.961C179.359 381.195 179.328 381.586 179.266 381.938L179.062 383.047C178.711 384.953 177.547 386.133 175.469 386.133C173.648 386.133 172.242 384.961 172.242 383C172.242 382.609 172.266 382.203 172.336 381.828ZM180.891 386L182.336 377.805H183.516L183.266 379.18H183.359C183.664 378.414 184.5 377.672 185.734 377.672C185.922 377.672 186.211 377.695 186.359 377.719L186.102 378.891C185.938 378.836 185.641 378.82 185.461 378.82C183.977 378.82 183.203 379.953 182.961 381.297L182.133 386H180.891ZM190.758 377.672C192.195 377.672 193.055 378.68 193.172 379.375H193.273L194.133 374.461H195.383L193.336 386H192.125L192.367 384.617H192.266C192.07 385.211 191.32 386.117 189.922 386.117C188.211 386.117 186.961 384.898 186.961 383C186.961 382.711 186.977 382.367 187.039 382.062L187.344 380.5C187.648 378.93 188.789 377.672 190.758 377.672ZM192.945 381.062C192.945 379.445 191.812 378.727 190.805 378.727C189.5 378.727 188.742 379.695 188.492 380.93L188.25 382.141C188.227 382.266 188.203 382.555 188.203 382.828C188.203 384.203 189.016 385.023 190.297 385.023C191.602 385.023 192.453 384.023 192.695 382.633L192.906 381.43C192.938 381.234 192.945 381.117 192.945 381.062Z" fill="white" fill-opacity="0.5"/>
</svg>
