<svg width="556" height="536" viewBox="0 0 556 536" fill="none" xmlns="http://www.w3.org/2000/svg">
<rect width="556" height="536" rx="20" fill="white" fill-opacity="0.5"/>
<rect x="2" y="2" width="552" height="532" rx="18" stroke="black" stroke-opacity="0.2" stroke-width="4" stroke-dasharray="8 8"/>
<path d="M171.156 254L172.748 245.035H171.098L171.312 243.756H172.992L173.051 243.297C173.324 241.158 174.506 240.094 176.596 240.094C176.967 240.094 177.367 240.133 177.709 240.201L177.475 241.451C177.309 241.412 176.898 241.383 176.596 241.383C175.424 241.383 174.857 241.9 174.623 243.16L174.516 243.756H176.879L176.645 245.035H174.281L172.709 254H171.156ZM177.865 254L179.672 243.756H181.225L179.418 254H177.865ZM179.672 240.611C179.672 239.938 180.18 239.449 180.814 239.449C181.488 239.449 181.986 239.938 181.986 240.611C181.986 241.266 181.488 241.754 180.814 241.754C180.18 241.754 179.672 241.266 179.672 240.611ZM183.246 254L185.805 239.576H187.357L184.799 254H183.246ZM192.562 254.166C190.326 254.166 188.666 252.828 188.666 250.309C188.666 249.703 188.764 249.088 188.832 248.717L189.105 247.213C189.516 244.938 191.244 243.59 193.568 243.59C196.742 243.59 197.582 246.109 197.25 247.896L196.996 249.264H190.238C190.189 249.439 190.141 249.801 190.141 250.162C190.141 251.48 190.795 252.799 192.67 252.799C193.979 252.799 194.809 252.154 195.023 251.48H196.576C196.332 252.76 194.848 254.166 192.562 254.166ZM195.746 248.023L195.775 247.867C196.088 246.246 195.277 244.898 193.51 244.898C192.24 244.898 190.99 245.621 190.639 247.32L190.492 248.023H195.746ZM203.881 254L205.688 243.756H207.24L205.434 254H203.881ZM205.688 240.611C205.688 239.938 206.195 239.449 206.83 239.449C207.504 239.449 208.002 239.938 208.002 240.611C208.002 241.266 207.504 241.754 206.83 241.754C206.195 241.754 205.688 241.266 205.688 240.611ZM210.102 246.529C210.102 244.742 211.4 243.57 213.725 243.57C216.156 243.57 217.377 245.084 217.377 246.363V246.539H215.922V246.471C215.922 245.768 215.189 244.811 213.695 244.811C212.387 244.811 211.635 245.504 211.635 246.334C211.635 247.369 212.66 247.701 213.803 248.082C215.326 248.58 216.684 249.176 216.684 251.031C216.684 253.043 215.209 254.186 212.807 254.186C210.414 254.186 208.842 252.76 208.842 251.217V251.148H210.326C210.326 251.197 210.336 251.266 210.346 251.314C210.512 252.086 211.43 252.857 212.914 252.857C214.379 252.857 215.16 252.164 215.16 251.158C215.16 250.055 214.154 249.732 213.021 249.381C211.947 249.039 210.102 248.424 210.102 246.529ZM228.842 254.166C227.133 254.166 226 252.916 225.766 251.939H225.648L225.287 254H223.744L226.312 239.576H227.865L226.82 245.357H226.947C227.309 244.596 228.139 243.59 229.887 243.59C232.025 243.59 233.49 245.025 233.49 247.408C233.49 247.76 233.48 248.189 233.412 248.58L233.061 250.553C232.709 252.516 231.303 254.166 228.842 254.166ZM226.156 249.82C226.156 251.842 227.592 252.76 228.793 252.76C230.414 252.76 231.42 251.471 231.684 250.016L231.957 248.473C231.996 248.229 231.996 247.887 231.996 247.613C231.996 245.895 231.02 244.889 229.418 244.889C227.797 244.889 226.723 246.129 226.439 247.867L226.205 249.361C226.156 249.605 226.156 249.801 226.156 249.82ZM239.457 254.166C237.221 254.166 235.561 252.828 235.561 250.309C235.561 249.703 235.658 249.088 235.727 248.717L236 247.213C236.41 244.938 238.139 243.59 240.463 243.59C243.637 243.59 244.477 246.109 244.145 247.896L243.891 249.264H237.133C237.084 249.439 237.035 249.801 237.035 250.162C237.035 251.48 237.689 252.799 239.564 252.799C240.873 252.799 241.703 252.154 241.918 251.48H243.471C243.227 252.76 241.742 254.166 239.457 254.166ZM242.641 248.023L242.67 247.867C242.982 246.246 242.172 244.898 240.404 244.898C239.135 244.898 237.885 245.621 237.533 247.32L237.387 248.023H242.641ZM246.205 254L248.012 243.756H249.564L247.758 254H246.205ZM248.012 240.611C248.012 239.938 248.52 239.449 249.154 239.449C249.828 239.449 250.326 239.938 250.326 240.611C250.326 241.266 249.828 241.754 249.154 241.754C248.52 241.754 248.012 241.266 248.012 240.611ZM251.439 254L253.246 243.756H254.77L254.457 245.455H254.574C255.141 244.264 256.176 243.59 257.641 243.59C259.887 243.59 260.785 245.162 260.785 246.803C260.785 247.35 260.688 247.926 260.59 248.473L259.613 254H258.061L259.057 248.375C259.105 248.082 259.193 247.564 259.193 247.096C259.193 245.943 258.686 244.898 257.172 244.898C255.355 244.898 254.33 246.393 254.037 248.072L252.992 254H251.439ZM267.934 243.59C269.643 243.59 270.717 244.566 271.029 245.719H271.156L271.508 243.756H273.031L271.234 253.922C270.766 256.568 269.271 257.867 266.586 257.867C264.193 257.867 262.699 256.441 262.699 254.957V254.85H264.223V254.938C264.223 255.699 265.199 256.539 266.674 256.539C268.588 256.539 269.467 255.484 269.799 253.648L270.072 252.135H269.945C269.574 253.062 268.598 253.834 267.045 253.834C265.16 253.834 263.324 252.379 263.324 249.928C263.324 249.557 263.383 248.912 263.461 248.531L263.695 247.33C264.203 244.723 266.029 243.59 267.934 243.59ZM270.697 247.76C270.697 245.953 269.555 244.898 268.012 244.898C266.488 244.898 265.463 246.041 265.131 247.799L264.975 248.619C264.926 248.893 264.848 249.449 264.848 249.703C264.848 251.598 265.912 252.545 267.533 252.545C268.979 252.545 270.131 251.383 270.434 249.645L270.6 248.697C270.697 248.121 270.697 247.838 270.697 247.76ZM284.32 254.166C282.543 254.166 281.498 252.799 281.332 251.939H281.205L280.238 257.584H278.686L281.107 243.756H282.631L282.338 245.357H282.465C282.768 244.635 283.578 243.59 285.375 243.59C287.514 243.59 289.037 245.025 289.037 247.408C289.037 247.76 289.037 248.189 288.959 248.58L288.598 250.553C288.285 252.525 286.791 254.166 284.32 254.166ZM281.645 249.82C281.645 251.842 283.08 252.76 284.271 252.76C285.912 252.76 286.957 251.471 287.221 250.016L287.494 248.473C287.533 248.229 287.543 247.887 287.543 247.613C287.543 245.895 286.508 244.889 284.896 244.889C283.275 244.889 282.211 246.129 281.928 247.867L281.684 249.361C281.645 249.605 281.645 249.801 281.645 249.82ZM290.932 254L292.738 243.756H294.213L293.9 245.475H294.018C294.398 244.518 295.443 243.59 296.986 243.59C297.221 243.59 297.582 243.619 297.768 243.648L297.445 245.113C297.24 245.045 296.869 245.025 296.645 245.025C294.789 245.025 293.822 246.441 293.52 248.121L292.484 254H290.932ZM300.395 247.701L300.18 248.902C300.121 249.225 300.072 249.527 300.072 249.996C300.072 251.676 301.088 252.818 302.787 252.818C304.311 252.818 305.307 251.773 305.629 249.918L305.854 248.619C305.902 248.316 305.902 247.828 305.902 247.701C305.902 246.09 304.877 244.938 303.217 244.938C301.83 244.938 300.727 245.787 300.395 247.701ZM298.676 248.785L298.91 247.408C299.33 245.006 301.068 243.59 303.266 243.59C305.756 243.59 307.455 245.162 307.455 247.701C307.455 247.994 307.416 248.482 307.338 248.922L307.084 250.309C306.645 252.691 305.189 254.166 302.592 254.166C300.316 254.166 298.559 252.701 298.559 250.25C298.559 249.762 298.588 249.254 298.676 248.785ZM309.574 250.221C309.574 249.811 309.623 249.264 309.711 248.736L309.965 247.281C310.385 244.869 312.035 243.59 314.32 243.59C316.781 243.59 318.158 245.113 318.158 246.793V246.891H316.645C316.645 246.861 316.645 246.822 316.645 246.793C316.645 245.953 315.883 244.898 314.32 244.898C312.875 244.898 311.752 245.885 311.43 247.691L311.225 248.844C311.146 249.264 311.117 249.566 311.117 249.889C311.117 251.705 311.986 252.799 313.686 252.799C314.955 252.799 315.775 252.184 315.961 251.461H317.523C317.23 253.102 315.658 254.166 313.617 254.166C311.176 254.166 309.574 252.623 309.574 250.221ZM323.812 254.166C321.576 254.166 319.916 252.828 319.916 250.309C319.916 249.703 320.014 249.088 320.082 248.717L320.355 247.213C320.766 244.938 322.494 243.59 324.818 243.59C327.992 243.59 328.832 246.109 328.5 247.896L328.246 249.264H321.488C321.439 249.439 321.391 249.801 321.391 250.162C321.391 251.48 322.045 252.799 323.92 252.799C325.229 252.799 326.059 252.154 326.273 251.48H327.826C327.582 252.76 326.098 254.166 323.812 254.166ZM326.996 248.023L327.025 247.867C327.338 246.246 326.527 244.898 324.76 244.898C323.49 244.898 322.24 245.621 321.889 247.32L321.742 248.023H326.996ZM331.391 246.529C331.391 244.742 332.689 243.57 335.014 243.57C337.445 243.57 338.666 245.084 338.666 246.363V246.539H337.211V246.471C337.211 245.768 336.479 244.811 334.984 244.811C333.676 244.811 332.924 245.504 332.924 246.334C332.924 247.369 333.949 247.701 335.092 248.082C336.615 248.58 337.973 249.176 337.973 251.031C337.973 253.043 336.498 254.186 334.096 254.186C331.703 254.186 330.131 252.76 330.131 251.217V251.148H331.615C331.615 251.197 331.625 251.266 331.635 251.314C331.801 252.086 332.719 252.857 334.203 252.857C335.668 252.857 336.449 252.164 336.449 251.158C336.449 250.055 335.443 249.732 334.311 249.381C333.236 249.039 331.391 248.424 331.391 246.529ZM341.254 246.529C341.254 244.742 342.553 243.57 344.877 243.57C347.309 243.57 348.529 245.084 348.529 246.363V246.539H347.074V246.471C347.074 245.768 346.342 244.811 344.848 244.811C343.539 244.811 342.787 245.504 342.787 246.334C342.787 247.369 343.812 247.701 344.955 248.082C346.479 248.58 347.836 249.176 347.836 251.031C347.836 253.043 346.361 254.186 343.959 254.186C341.566 254.186 339.994 252.76 339.994 251.217V251.148H341.479C341.479 251.197 341.488 251.266 341.498 251.314C341.664 252.086 342.582 252.857 344.066 252.857C345.531 252.857 346.312 252.164 346.312 251.158C346.312 250.055 345.307 249.732 344.174 249.381C343.1 249.039 341.254 248.424 341.254 246.529ZM354.398 254.166C352.162 254.166 350.502 252.828 350.502 250.309C350.502 249.703 350.6 249.088 350.668 248.717L350.941 247.213C351.352 244.938 353.08 243.59 355.404 243.59C358.578 243.59 359.418 246.109 359.086 247.896L358.832 249.264H352.074C352.025 249.439 351.977 249.801 351.977 250.162C351.977 251.48 352.631 252.799 354.506 252.799C355.814 252.799 356.645 252.154 356.859 251.48H358.412C358.168 252.76 356.684 254.166 354.398 254.166ZM357.582 248.023L357.611 247.867C357.924 246.246 357.113 244.898 355.346 244.898C354.076 244.898 352.826 245.621 352.475 247.32L352.328 248.023H357.582ZM365.922 243.59C367.719 243.59 368.793 244.85 368.939 245.719H369.066L370.141 239.576H371.703L369.145 254H367.631L367.934 252.271H367.807C367.562 253.014 366.625 254.146 364.877 254.146C362.738 254.146 361.176 252.623 361.176 250.25C361.176 249.889 361.195 249.459 361.273 249.078L361.654 247.125C362.035 245.162 363.461 243.59 365.922 243.59ZM368.656 247.828C368.656 245.807 367.24 244.908 365.98 244.908C364.35 244.908 363.402 246.119 363.09 247.662L362.787 249.176C362.758 249.332 362.729 249.693 362.729 250.035C362.729 251.754 363.744 252.779 365.346 252.779C366.977 252.779 368.041 251.529 368.344 249.791L368.607 248.287C368.646 248.043 368.656 247.896 368.656 247.828ZM372.465 252.867C372.465 252.096 373.051 251.529 373.764 251.529C374.535 251.529 375.111 252.096 375.111 252.867C375.111 253.6 374.535 254.166 373.764 254.166C373.051 254.166 372.465 253.6 372.465 252.867ZM377.816 252.867C377.816 252.096 378.402 251.529 379.115 251.529C379.887 251.529 380.463 252.096 380.463 252.867C380.463 253.6 379.887 254.166 379.115 254.166C378.402 254.166 377.816 253.6 377.816 252.867ZM383.168 252.867C383.168 252.096 383.754 251.529 384.467 251.529C385.238 251.529 385.814 252.096 385.814 252.867C385.814 253.6 385.238 254.166 384.467 254.166C383.754 254.166 383.168 253.6 383.168 252.867Z" fill="black" fill-opacity="0.5"/>
<rect x="156" y="265" width="243" height="6" rx="3" fill="#EEEEEE"/>
<rect x="156" y="265" width="182" height="6" rx="3" fill="#0095FF"/>
</svg>
